<svg width="1460" height="1761" viewBox="0 0 1460 1761" fill="none" xmlns="http://www.w3.org/2000/svg">
<path d="M1379.48 302.827C1379.24 302.772 1379 302.723 1378.77 302.679C1322.03 292.003 1277.08 331.47 1261.5 405.656L1168.26 727.369C1144.81 711.348 1111.66 703.564 1074.16 728.521C1040.35 700.964 999.696 685.951 957.988 685.951C953.667 685.951 949.278 686.123 944.847 686.463C897.386 610.204 823.909 562.516 743.03 555.025V271.314H815.32C871.943 271.314 918.011 218.429 918.011 153.431V25.7959C918.011 11.5462 907.953 0 895.54 0H800.777C744.156 0 698.088 52.885 698.088 117.884V173.187C675.821 151.405 646.99 138.211 615.507 138.211H491.412C479.002 138.211 468.941 149.757 468.941 164.007V272.673C468.941 353.393 526.149 419.07 596.467 419.07H698.094V555.025C617.209 562.516 543.733 610.204 496.275 686.463C491.843 686.119 487.454 685.951 483.134 685.951C444.343 685.951 407.258 698.463 375.002 722.237C341.889 705.139 312.755 712.882 291.543 727.369L198.301 405.656C182.709 331.467 137.771 291.985 81.037 302.679C80.8003 302.723 80.5637 302.772 80.327 302.827C6.45528 319.522 -4.18085 400.748 1.18216 446.104C1.23908 446.596 1.30799 447.081 1.39188 447.566L86.8614 951.256C97.5815 1040.03 149.911 1092.47 171.953 1110.92C172.244 1111.16 172.541 1111.4 172.84 1111.63C328.85 1229.51 330.579 1224.42 361.618 1280.13H316.887C316.872 1280.13 316.86 1280.13 316.845 1280.13C290.797 1280.13 269.584 1304.32 269.551 1334.11V1703.12C269.551 1735.04 292.166 1761 319.967 1761H700.228C711.25 1761 721.467 1757.02 729.901 1750.3C738.332 1757.02 748.549 1761 759.574 1761H911.333C923.745 1761 933.803 1749.45 933.803 1735.2C933.803 1720.95 923.745 1709.4 911.333 1709.4H759.574C755.607 1709.4 752.378 1705.7 752.378 1701.14V1491.97H1145.31V1703.12C1145.31 1706.59 1142.85 1709.4 1139.84 1709.4H1016.2C1003.79 1709.4 993.731 1720.95 993.731 1735.2C993.731 1749.45 1003.79 1761 1016.2 1761H1139.84C1167.64 1761 1190.25 1735.04 1190.25 1703.12V1334.08C1190.22 1304.32 1169.01 1280.13 1142.98 1280.13C1142.96 1280.13 1142.95 1280.13 1142.93 1280.13H1098.19C1129.45 1224.04 1132.63 1228.24 1286.97 1111.62C1287.27 1111.4 1287.57 1111.16 1287.86 1110.92C1309.89 1092.47 1362.21 1040.04 1372.95 951.284L1390.23 849.387C1392.61 835.405 1384.66 821.857 1372.47 819.133C1360.29 816.399 1348.5 825.534 1346.12 839.522L1328.7 942.166C1328.6 942.754 1328.52 943.346 1328.46 943.941C1320.52 1010.34 1283.49 1050.6 1261.8 1068.88C1096.34 1193.9 1096.9 1184.99 1051.25 1268.87C1049.28 1272.5 1047.24 1276.25 1045.11 1280.13H765.938C793.059 1097.87 786.905 1112 885.656 948.247C909.772 909.89 931.029 898.138 1092.55 776.095C1131.08 746.956 1156.3 780.563 1160.86 787.422C1160.91 787.494 1160.96 787.552 1161.01 787.624C1161.11 787.769 1161.19 787.924 1161.29 788.065C1166.28 795.511 1180.7 821.675 1157.02 845.607C1115.34 887.713 1016.5 988.382 1015.5 989.393C1006.22 998.848 1005.37 1015.15 1013.6 1025.81C1021.84 1036.48 1036.05 1037.44 1045.33 1027.99C1046.32 1026.98 1145.11 926.379 1186.72 884.338C1223.84 846.828 1218.53 798.71 1203.74 768.415L1304.44 420.955C1304.61 420.377 1304.75 419.796 1304.88 419.207L1305.19 417.797C1312.23 384.245 1329.42 345.923 1371.15 353.528C1419.46 364.744 1415.7 424.717 1414.17 438.475L1366.54 719.135C1364.17 733.116 1372.12 746.664 1384.3 749.388C1396.49 752.122 1408.28 742.987 1410.66 728.999L1458.41 447.566C1458.49 447.081 1458.57 446.596 1458.62 446.107C1463.98 400.751 1453.36 319.532 1379.48 302.827ZM596.452 367.475C550.917 367.475 513.871 324.949 513.871 272.673V189.81H615.495C661.03 189.81 698.074 232.335 698.074 284.611V367.475H596.452ZM743.024 193.087V117.884C743.024 81.3293 768.931 51.5952 800.768 51.5952H873.057V153.427C873.057 189.982 847.15 219.716 815.311 219.716H743.021V193.087H743.024ZM197.996 1068.88C176.313 1050.61 139.32 1010.38 131.35 944.058C131.285 943.421 131.198 942.795 131.093 942.169L45.6232 438.482C44.0952 424.717 40.3411 364.747 88.6411 353.535C130.398 345.933 147.559 384.256 154.603 417.804L154.906 419.218C155.035 419.806 155.184 420.387 155.352 420.962L256.054 768.422C241.256 798.717 235.953 846.835 273.075 884.342C314.684 926.382 413.469 1026.98 414.463 1027.99C423.745 1037.45 437.947 1036.48 446.186 1025.82C454.422 1015.16 453.571 998.855 444.289 989.397C443.295 988.385 344.448 887.716 302.772 845.61C279.115 821.709 293.481 795.58 298.482 788.096C298.547 787.999 298.601 787.896 298.667 787.796C298.715 787.724 298.769 787.666 298.817 787.594C314.13 764.525 338.902 756.308 364.836 774.403C366.298 775.418 436.107 827.9 437.539 828.974C536.377 903.121 554.186 916.48 574.197 948.343C574.215 948.371 574.233 948.398 574.248 948.422C675.321 1116.04 667.558 1103.31 693.852 1280.13H414.685C412.549 1276.25 410.508 1272.5 408.534 1268.87C362.907 1185.03 363.596 1194.01 197.996 1068.88ZM700.222 1709.4H319.958C316.94 1709.4 314.487 1706.58 314.487 1703.12V1491.96H707.415V1701.14H707.418C707.418 1705.69 704.189 1709.4 700.222 1709.4ZM707.418 1334.7V1440.37H314.487V1334.15C314.487 1332.57 315.697 1331.73 316.857 1331.73C327.196 1331.73 695.149 1331.73 705.144 1331.73C705.447 1331.73 705.74 1331.81 706.01 1331.97C706.043 1331.98 706.064 1332.02 706.097 1332.04C706.858 1332.53 707.418 1333.53 707.418 1334.66V1334.7V1334.7ZM1142.94 1331.73C1144.08 1331.73 1145.29 1332.57 1145.29 1334.11V1440.37H752.363V1334.69V1334.62C752.363 1334.47 752.417 1334.33 752.438 1334.18C752.62 1332.84 753.546 1331.73 754.634 1331.72C764.65 1331.73 1132.58 1331.73 1142.94 1331.73ZM854.29 910.237C854.215 910.348 854.14 910.454 854.065 910.564C750.271 1064.92 738.542 1157.22 729.892 1215.27C721.755 1160.64 715.436 1124.44 703.002 1089.81C682.509 1032.52 610.555 916.969 601.042 903.868C575.785 869.071 543.307 846.965 419.727 753.938C419.467 753.742 419.194 753.536 418.93 753.34C438.911 742.939 460.645 737.546 483.113 737.546C489.971 737.549 497.102 738.12 504.304 739.242C512.957 740.586 521.517 736.057 526.239 727.616C568.987 651.185 641.624 605.557 720.547 605.557C799.467 605.557 872.105 651.188 914.853 727.616C919.575 736.06 928.159 740.586 936.787 739.242C943.987 738.12 951.118 737.549 957.976 737.549C984.212 737.549 1009.91 745.199 1032.68 759.479C908.756 852.661 879.978 872.166 854.29 910.237Z" fill="#B70569" fill-opacity="0.74"/>
</svg>
