<svg width="1509" height="1715" viewBox="0 0 1509 1715" fill="none" xmlns="http://www.w3.org/2000/svg">
<path d="M1021.47 538.713C1017.54 526.587 1007.09 517.754 994.52 515.922L849.332 494.786L784.369 362.765C778.742 351.336 767.144 344.101 754.445 344.101H754.439C741.733 344.104 730.135 351.346 724.515 362.781L659.625 494.836L514.447 516.049C501.875 517.885 491.435 526.728 487.514 538.854C483.592 550.979 486.87 564.29 495.968 573.187L601.05 675.936L576.29 821.065C574.144 833.633 579.297 846.331 589.576 853.824C595.39 858.061 602.272 860.215 609.187 860.215C614.5 860.215 619.837 858.942 624.723 856.363L754.559 787.81L884.432 856.293C895.676 862.225 909.302 861.233 919.578 853.734C929.854 846.237 934.997 833.535 932.848 820.971L908.011 675.856L1013.04 573.053C1022.13 564.15 1025.39 550.838 1021.47 538.713ZM848.841 640.193C840.978 647.89 837.391 658.977 839.25 669.843L855.61 765.424L770.068 720.319C760.346 715.19 748.728 715.194 739.006 720.325L653.488 765.478L669.798 669.887C671.654 659.021 668.059 647.934 660.193 640.24L590.981 572.564L686.602 558.593C697.472 557.005 706.867 550.148 711.726 540.264L754.465 453.288L797.255 540.244C802.121 550.128 811.519 556.978 822.389 558.559L918.016 572.48L848.841 640.193Z" fill="#B70569" fill-opacity="0.74"/>
<path d="M1504.56 1471.72L1228.7 990.14C1312 885.772 1361.92 753.452 1361.92 609.632C1361.92 273.48 1089.43 0 754.5 0C419.569 0 147.083 273.48 147.083 609.632C147.083 753.452 196.991 885.772 280.301 990.14L4.44019 1471.72C-1.89429 1482.78 -1.42037 1496.49 5.66504 1507.09C12.7505 1517.68 25.2292 1523.31 37.8147 1521.61L253.124 1492.59L335.739 1694.25C340.579 1706.05 351.686 1714.08 364.381 1714.93C365.129 1714.98 365.873 1715 366.614 1715C378.479 1715 389.522 1708.66 395.51 1698.25L673.997 1214.14C674.04 1214.07 674.07 1213.99 674.114 1213.91C700.426 1217.42 727.253 1219.26 754.506 1219.26C781.76 1219.26 808.587 1217.42 834.899 1213.91C834.942 1213.99 834.972 1214.06 835.016 1214.14L1113.5 1698.25C1119.49 1708.66 1130.54 1715 1142.4 1715C1143.14 1715 1143.88 1714.98 1144.63 1714.93C1157.33 1714.08 1168.43 1706.05 1173.27 1694.25L1255.89 1492.59L1471.2 1521.61C1483.81 1523.31 1496.27 1517.68 1503.35 1507.09C1510.42 1496.49 1510.89 1482.78 1504.56 1471.72ZM371.647 1605.74L311.506 1458.95L365.476 1370.56C375.108 1354.79 370.175 1334.16 354.459 1324.5C338.743 1314.84 318.194 1319.78 308.566 1335.56L254.028 1424.88L96.0667 1446.17L327.272 1042.55C403.006 1117.84 498.31 1173.32 604.762 1200.5L371.647 1605.74ZM754.496 1152.27C456.372 1152.27 213.829 908.845 213.829 609.632C213.829 310.42 456.372 66.9926 754.496 66.9926C1052.62 66.9926 1295.16 310.42 1295.16 609.632C1295.16 908.845 1052.62 1152.27 754.496 1152.27ZM1254.97 1424.88L1200.43 1335.56C1190.8 1319.78 1170.25 1314.83 1154.54 1324.5C1138.82 1334.17 1133.89 1354.79 1143.52 1370.56L1197.49 1458.95L1137.35 1605.74L904.235 1200.5C1010.69 1173.32 1105.99 1117.84 1181.72 1042.55L1412.93 1446.17L1254.97 1424.88Z" fill="#B70569" fill-opacity="0.74"/>
<path d="M754.497 174.18C680.018 174.18 606.537 193.447 541.994 229.904C525.931 238.975 520.238 259.401 529.275 275.523C538.313 291.644 558.665 297.366 574.728 288.288C629.299 257.465 691.462 241.172 754.497 241.172C956.927 241.172 1121.62 406.463 1121.62 609.631C1121.62 665.148 1109.63 718.491 1086 768.176C1078.06 784.871 1085.1 804.865 1101.74 812.837C1106.38 815.061 1111.27 816.113 1116.09 816.113C1128.55 816.113 1140.51 809.075 1146.23 797.04C1174.19 738.271 1188.37 675.217 1188.37 609.631C1188.37 369.523 993.736 174.18 754.497 174.18Z" fill="#B70569" fill-opacity="0.74"/>
<path d="M976.732 945.747C967.838 929.545 947.54 923.646 931.397 932.576C877.56 962.351 816.388 978.088 754.495 978.088C552.065 978.088 387.375 812.797 387.375 609.628C387.375 556.406 398.425 505.076 420.215 457.066C427.858 440.231 420.452 420.368 403.678 412.697C386.904 405.03 367.113 412.459 359.47 429.294C333.692 486.084 320.622 546.756 320.622 609.628C320.622 849.736 515.256 1045.08 754.491 1045.08C827.618 1045.08 899.931 1026.47 963.61 991.248C979.753 982.318 985.63 961.949 976.732 945.747Z" fill="#B70569" fill-opacity="0.74"/>
<path d="M484.166 311.175C470.68 298.563 449.561 299.32 436.999 312.853L436.258 313.653C423.742 327.233 424.56 348.426 438.09 360.987C444.508 366.949 452.634 369.897 460.744 369.897C469.722 369.897 478.673 366.282 485.251 359.148L485.839 358.515C498.401 344.979 497.653 323.782 484.166 311.175Z" fill="#B70569" fill-opacity="0.74"/>
</svg>
