<svg height="512pt" viewBox="-123 0 512 512" width="512pt" xmlns="http://www.w3.org/2000/svg"><path d="m210.40625 270.621094v-49.472656c0-12.429688-9.722656-22.625-21.964844-23.386719v-9.097657l42.011719-30.667968c14.257813-10.402344 22.765625-27.15625 22.765625-44.808594v-105.542969c0-4.222656-3.421875-7.644531-7.644531-7.644531h-219.429688c-4.222656 0-7.644531 3.421875-7.644531 7.644531v105.546875c0 17.652344 8.511719 34.402344 22.765625 44.808594l42.011719 30.664062v9.089844c-12.304688.691406-22.105469 10.917969-22.105469 23.394532v45.8125c-36.773437 23.710937-61.171875 65.03125-61.171875 111.945312 0 73.386719 59.707031 133.09375 133.097656 133.09375 23.230469 0 46.101563-6.078125 66.140625-17.570312 19.429688-11.148438 35.871094-27.148438 47.542969-46.277344 2.203125-3.605469 1.0625-8.308594-2.542969-10.507813-3.601562-2.203125-8.308593-1.0625-10.507812 2.542969-21.601563 35.390625-59.222657 56.523438-100.632813 56.523438-64.957031 0-117.804687-52.847657-117.804687-117.808594 0-64.957032 52.847656-117.804688 117.804687-117.804688 64.957032 0 117.804688 52.847656 117.804688 117.804688 0 11.375-1.613282 22.617187-4.800782 33.414062-1.199218 4.050782 1.117188 8.304688 5.167969 9.5 4.042969 1.195313 8.300781-1.117187 9.496094-5.167968 3.601563-12.203126 5.429687-24.90625 5.429687-37.746094 0-44.582032-22.039062-84.113282-55.789062-108.28125zm27.523438-157.433594c0 12.789062-6.167969 24.921875-16.496094 32.460938l-32.992188 24.082031v-154.441407h49.484375v97.898438zm-187.648438 32.460938c-10.324219-7.539063-16.492188-19.671876-16.492188-32.457032v-97.902344h49.488282v101.261719c0 4.222657 3.421875 7.648438 7.644531 7.648438s7.644531-3.425781 7.644531-7.648438v-101.261719h74.585938v190.007813c0 .019531-.003906.039063-.003906.058594s.003906.039062.003906.058593v10.6875c0 .941407-.769532 1.710938-1.710938 1.710938h-71.160156c-.945312 0-1.710938-.769531-1.710938-1.710938v-67.699218c0-4.222656-3.425781-7.644532-7.648437-7.644532s-7.644531 3.421876-7.644531 7.644532v21.328125zm26.183594 112.824218v-37.324218c0-4.039063 2.953125-7.386719 6.8125-8.027344v2.980468c0 9.375 7.625 17 17 17h71.160156c9.375 0 17.003906-7.625 17.003906-17v-2.960937c3.792969.695313 6.675782 4.015625 6.675782 8.007813v40.019531c-18.53125-9.800781-39.636719-15.363281-62.019532-15.363281-20.242187 0-39.4375 4.550781-56.632812 12.667968zm0 0"/><path d="m209.90625 357.171875c-1.199219-3.691406-4.328125-6.332031-8.167969-6.890625l-41.160156-5.980469-18.402344-37.296875c-1.71875-3.476562-5.195312-5.640625-9.074219-5.640625-3.878906 0-7.359374 2.160157-9.074218 5.640625l-18.40625 37.296875-41.160156 5.980469c-3.839844.558594-6.96875 3.199219-8.167969 6.886719-1.199219 3.691406-.21875 7.667969 2.5625 10.375l29.78125 29.03125-7.03125 40.992187c-.65625 3.824219.886719 7.613282 4.027343 9.894532 3.136719 2.28125 7.21875 2.574218 10.65625.773437l36.808594-19.355469 36.8125 19.355469c1.496094.785156 3.109375 1.171875 4.71875 1.171875 2.089844 0 4.167969-.65625 5.941406-1.945312 3.136719-2.28125 4.679688-6.074219 4.023438-9.894532l-7.03125-40.992187 29.78125-29.03125c2.777344-2.707031 3.761719-6.683594 2.5625-10.371094zm-44.960938 30.347656c-2.386718 2.324219-3.476562 5.675781-2.914062 8.957031l5.71875 33.34375-29.945312-15.746093c-2.945313-1.542969-6.464844-1.546875-9.414063.003906l-29.945313 15.742187 5.71875-33.34375c.5625-3.285156-.527343-6.632812-2.910156-8.953124l-24.222656-23.617188 33.480469-4.863281c3.296875-.480469 6.144531-2.550781 7.617187-5.535157l14.96875-30.335937 14.972656 30.339844c1.476563 2.984375 4.320313 5.050781 7.617188 5.53125l33.480469 4.863281zm0 0"/></svg>