<?xml version="1.0" encoding="UTF-8"?>
<!DOCTYPE svg PUBLIC "-//W3C//DTD SVG 1.1//EN" "http://www.w3.org/Graphics/SVG/1.1/DTD/svg11.dtd">
<!-- Creator: CorelDRAW 2018 (64-Bit Evaluation Version) -->
<svg xmlns="http://www.w3.org/2000/svg" xml:space="preserve" width="2.2146in" height="3.59312in" version="1.1" style="shape-rendering:geometricPrecision; text-rendering:geometricPrecision; image-rendering:optimizeQuality; fill-rule:evenodd; clip-rule:evenodd"
viewBox="0 0 41.97 68.1"
 xmlns:xlink="http://www.w3.org/1999/xlink">
 <defs>
  <style type="text/css">
   <![CDATA[
    .fil3 {fill:none}
    .fil0 {fill:#210D15}
    .fil5 {fill:#EEEEF0}
    .fil1 {fill:deeppink}
    .fil4 {fill:#FEFEFE;fill-rule:nonzero}
    .fil2 {fill:#FEFEFE;fill-rule:nonzero}
    .fil6 {fill:#210D15;fill-rule:nonzero}
   ]]>
  </style>
   <clipPath id="id0">
    <path d="M22.44 30.12c1.33,-0.08 1.19,-0.16 2.06,-0.92 0.56,-0.49 1.06,-0.85 1.61,-1.27 1.98,-1.48 1.93,-1.55 0.42,-3.24 -3.43,-3.85 -8.01,-8.26 -11.42,-12.07l-5.71 -6.03c-1.55,-1.59 -2,-0.52 -3.31,0.6 -1.67,1.43 -0.43,2.26 0.62,3.54 4.57,5.56 11.72,14.12 15.73,19.4z"/>
   </clipPath>
   <clipPath id="id1">
    <path d="M9.84 6.15l12.31 13.08c1.16,1.24 3.54,3.26 4.14,4.49 0.63,-0.36 2.58,-2.29 3.21,-2.94 1.22,-1.27 2.57,-1.87 2.63,-3.74l-16.49 -11.43c-1.86,-1.27 -2.72,-2.82 -5.81,0.54z"/>
   </clipPath>
   <clipPath id="id2">
    <path d="M14.91 4.24c0.27,0.36 7.54,5.48 8.25,5.84 1.17,0.59 7.73,1.76 9.92,2.3 0.94,0.23 0.89,0.06 1.2,0.72 -1.23,0.5 -7.1,-1.6 -9.04,-1.6l7 4.84c0.9,0.35 2.53,0.71 3.55,0.61 0.5,-0.95 1.46,-6.2 1.73,-7.81 0.38,-2.28 -1.48,-1.8 -6.75,-2.84l-12.16 -2.22c-1.56,-0.28 -2.88,-0.97 -3.69,0.17z"/>
   </clipPath>
   <clipPath id="id3">
    <path d="M17.65 3.04l0.35 0.19c0.26,0.11 0.27,0.12 0.56,0.2l17.29 3.12c-0.21,-1.16 -1.28,-3.61 -1.78,-5 -0.76,-2.11 -0.99,-1.6 -4.86,-1.18 -2.09,0.23 -4.15,0.5 -6.28,0.7 -1.11,0.11 -2.13,0.2 -3.22,0.32 -1.58,0.18 -1.79,0.16 -2.07,1.64z"/>
   </clipPath>
 </defs>
 <g id="Layer_x0020_1">
  <metadata id="CorelCorpID_0Corel-Layer"/>
  <path class="fil0" d="M1.99 25.32c-0.6,0.72 -0.73,0.53 -1.52,0.88 -0.05,0.94 0.15,1.14 0.46,1.72 -0.51,0.31 -0.97,0.48 -0.92,1.22 0.05,0.98 -0.12,0.15 0.3,0.64l0.73 0.57c-0.19,4.48 0.63,4.09 4.73,4.07 4.55,-0.01 3.99,0.07 6.01,2.84 1.28,1.76 2.33,3.43 3.42,5.46l2.86 5.97c3.14,-1.15 9.05,-2.74 10.01,-7.6 -2.01,-1.34 -4.93,-5.74 -6.23,-8.1 -0.57,1.82 -1.1,3.42 -3.02,4.2 -2.2,0.9 -4.16,-0.86 -4.86,-2.33 -1.14,-2.39 -1.22,-8.64 4.87,-8.18 -0.97,-1 -3.93,-5.09 -5.64,-6.86 -5.13,1.75 -4.67,2.6 -5.92,4.6 -0.26,0.42 0.02,0.11 -0.31,0.37l-1.18 -3.31c3.59,-0.21 3.11,-0.7 5.29,-1.63 0.93,-0.4 1.12,-0.33 1.61,-0.76l-2.77 -3.43c-1.02,-1.25 -1.84,-2.34 -2.92,-3.48 -3.19,3.25 -1.08,3.83 -2.66,4.55 -1.37,-1.73 2.04,-4.53 2.09,-5.14 0.16,-1.81 -1.99,0.66 -2.9,3.35 -1,2.94 0.98,4.34 -0.95,6.23 -2.12,2.07 -3.11,1.36 -1.01,3.58 0.29,0.31 0.21,0.14 0.43,0.57z"/>
  <path class="fil1" d="M22.44 30.12c1.33,-0.08 1.19,-0.16 2.06,-0.92 0.56,-0.49 1.06,-0.85 1.61,-1.27 1.98,-1.48 1.93,-1.55 0.42,-3.24 -3.43,-3.85 -8.01,-8.26 -11.42,-12.07l-5.71 -6.03c-1.55,-1.59 -2,-0.52 -3.31,0.6 -1.67,1.43 -0.43,2.26 0.62,3.54 4.57,5.56 11.72,14.12 15.73,19.4z"/>
  <g style="clip-path:url(#id0)">
   <g id="_2067713170080">
    <polygon id="1" class="fil2" points="9.48,6.36 5.56,9.82 5.2,9.41 8.71,6.31 8.48,6.05 8.89,5.69 9.48,6.35 9.47,6.35 "/>
    <path id="2" class="fil2" d="M8.11 8.74c-0.45,0.4 -0.73,0.86 -0.83,1.38 -0.1,0.51 -0.01,0.94 0.28,1.27 0.29,0.33 0.7,0.48 1.22,0.44 0.53,-0.04 1.02,-0.26 1.47,-0.66 0.45,-0.4 0.73,-0.85 0.84,-1.38 0.1,-0.51 0.01,-0.94 -0.29,-1.27 -0.29,-0.33 -0.7,-0.48 -1.22,-0.44 -0.53,0.04 -1.02,0.26 -1.48,0.65zm-0.35 -0.4c0.56,-0.49 1.17,-0.75 1.84,-0.78 0.68,-0.04 1.21,0.17 1.61,0.61 0.4,0.45 0.53,1.01 0.41,1.67 -0.12,0.66 -0.45,1.23 -1.01,1.72 -0.55,0.49 -1.16,0.75 -1.83,0.79 -0.68,0.04 -1.21,-0.17 -1.61,-0.62 -0.39,-0.45 -0.53,-1 -0.41,-1.67 0.12,-0.66 0.45,-1.23 1,-1.72z"/>
    <path id="3" class="fil2" d="M11.22 12.22c-0.45,0.4 -0.73,0.86 -0.83,1.38 -0.1,0.51 -0.01,0.94 0.28,1.27 0.29,0.33 0.7,0.48 1.22,0.44 0.53,-0.04 1.02,-0.26 1.47,-0.66 0.45,-0.4 0.73,-0.85 0.84,-1.38 0.1,-0.51 0.01,-0.94 -0.29,-1.27 -0.29,-0.33 -0.7,-0.48 -1.22,-0.44 -0.53,0.04 -1.02,0.26 -1.48,0.65zm-0.35 -0.4c0.56,-0.49 1.17,-0.75 1.84,-0.78 0.68,-0.04 1.21,0.17 1.61,0.61 0.4,0.45 0.53,1.01 0.41,1.67 -0.12,0.66 -0.45,1.23 -1.01,1.72 -0.55,0.49 -1.16,0.75 -1.83,0.79 -0.68,0.04 -1.21,-0.17 -1.61,-0.62 -0.39,-0.45 -0.53,-1 -0.41,-1.67 0.12,-0.66 0.45,-1.23 1,-1.72z"/>
    <path id="4" class="fil2" d="M14.32 15.7c-0.45,0.4 -0.73,0.86 -0.83,1.38 -0.1,0.51 -0.01,0.94 0.28,1.27 0.29,0.33 0.7,0.48 1.22,0.44 0.53,-0.04 1.02,-0.26 1.47,-0.66 0.45,-0.4 0.73,-0.85 0.84,-1.38 0.1,-0.51 0.01,-0.94 -0.29,-1.27 -0.29,-0.33 -0.7,-0.48 -1.22,-0.44 -0.53,0.04 -1.02,0.26 -1.48,0.65zm-0.35 -0.4c0.56,-0.49 1.17,-0.75 1.84,-0.78 0.68,-0.04 1.21,0.17 1.61,0.61 0.4,0.45 0.53,1.01 0.41,1.67 -0.12,0.66 -0.45,1.23 -1.01,1.72 -0.55,0.49 -1.16,0.75 -1.83,0.79 -0.68,0.04 -1.21,-0.17 -1.61,-0.62 -0.39,-0.45 -0.53,-1 -0.41,-1.67 0.12,-0.66 0.45,-1.23 1,-1.73z"/>
    <polygon id="5" class="fil2" points="19.62,17.73 15.7,21.19 15.34,20.78 18.85,17.68 18.62,17.42 19.03,17.06 19.62,17.72 19.62,17.73 "/>
    <polygon id="6" class="fil2" points="20.45,18.67 16.53,22.12 16.17,21.71 19.68,18.62 19.45,18.35 19.87,17.99 20.45,18.66 20.45,18.66 "/>
    <path id="7" class="fil2" d="M19.09 21.05c-0.45,0.4 -0.73,0.86 -0.83,1.38 -0.1,0.51 -0.01,0.94 0.28,1.27 0.29,0.33 0.7,0.48 1.22,0.44 0.53,-0.04 1.02,-0.26 1.47,-0.66 0.45,-0.4 0.73,-0.85 0.84,-1.38 0.1,-0.51 0.01,-0.94 -0.29,-1.27 -0.29,-0.33 -0.7,-0.48 -1.22,-0.44 -0.53,0.04 -1.02,0.26 -1.48,0.65zm-0.35 -0.4c0.56,-0.49 1.17,-0.75 1.84,-0.78 0.68,-0.04 1.21,0.17 1.61,0.61 0.4,0.45 0.53,1.01 0.41,1.67 -0.12,0.66 -0.45,1.23 -1.01,1.72 -0.55,0.49 -1.16,0.75 -1.83,0.79 -0.68,0.04 -1.21,-0.17 -1.61,-0.62 -0.39,-0.45 -0.53,-1 -0.41,-1.67 0.12,-0.66 0.45,-1.23 1,-1.73z"/>
    <path id="8" class="fil2" d="M22.19 24.53c-0.45,0.4 -0.73,0.86 -0.83,1.38 -0.1,0.51 -0.01,0.94 0.28,1.27 0.29,0.33 0.7,0.48 1.22,0.44 0.53,-0.04 1.02,-0.26 1.47,-0.66 0.45,-0.4 0.73,-0.85 0.84,-1.38 0.1,-0.51 0.01,-0.94 -0.29,-1.27 -0.29,-0.33 -0.7,-0.48 -1.22,-0.44 -0.53,0.04 -1.02,0.26 -1.48,0.65zm-0.35 -0.4c0.56,-0.49 1.17,-0.75 1.84,-0.78 0.68,-0.04 1.21,0.17 1.61,0.61 0.4,0.45 0.53,1.01 0.41,1.67 -0.12,0.66 -0.45,1.23 -1.01,1.72 -0.55,0.49 -1.16,0.75 -1.83,0.79 -0.68,0.04 -1.21,-0.17 -1.61,-0.62 -0.39,-0.45 -0.53,-1 -0.41,-1.67 0.12,-0.66 0.45,-1.23 1,-1.72z"/>
    <polygon id="9" class="fil2" points="27.49,26.56 23.57,30.02 23.21,29.61 26.72,26.51 26.49,26.25 26.91,25.88 27.49,26.55 27.49,26.55 "/>
   </g>
  </g>
  <path class="fil3" d="M22.44 30.12c1.33,-0.08 1.19,-0.16 2.06,-0.92 0.56,-0.49 1.06,-0.85 1.61,-1.27 1.98,-1.48 1.93,-1.55 0.42,-3.24 -3.43,-3.85 -8.01,-8.26 -11.42,-12.07l-5.71 -6.03c-1.55,-1.59 -2,-0.52 -3.31,0.6 -1.67,1.43 -0.43,2.26 0.62,3.54 4.57,5.56 11.72,14.12 15.73,19.4z"/>
  <path class="fil1" d="M9.84 6.15l12.31 13.08c1.16,1.24 3.54,3.26 4.14,4.49 0.63,-0.36 2.58,-2.29 3.21,-2.94 1.22,-1.27 2.57,-1.87 2.63,-3.74l-16.49 -11.43c-1.86,-1.27 -2.72,-2.82 -5.81,0.54z"/>
  <g style="clip-path:url(#id1)">
   <g id="_2067713173504">
    <polygon id="1" class="fil2" points="21.77,9.98 17.88,14.39 17.42,13.98 20.91,10.03 20.61,9.77 21.02,9.3 21.77,9.96 21.76,9.97 "/>
    <path id="2" class="fil2" d="M20.58 12.83c-0.44,0.51 -0.69,1.06 -0.74,1.66 -0.04,0.59 0.12,1.04 0.5,1.37 0.38,0.33 0.85,0.44 1.43,0.32 0.59,-0.12 1.1,-0.44 1.55,-0.94 0.45,-0.51 0.7,-1.06 0.74,-1.66 0.04,-0.59 -0.12,-1.05 -0.5,-1.38 -0.37,-0.33 -0.85,-0.44 -1.43,-0.32 -0.59,0.12 -1.11,0.43 -1.56,0.94zm-0.45 -0.39c0.55,-0.62 1.2,-1 1.94,-1.13 0.75,-0.14 1.38,0.02 1.88,0.46 0.5,0.45 0.74,1.05 0.69,1.81 -0.04,0.75 -0.33,1.44 -0.88,2.06 -0.55,0.63 -1.19,1.01 -1.93,1.14 -0.75,0.14 -1.38,-0.02 -1.88,-0.46 -0.5,-0.44 -0.73,-1.05 -0.69,-1.81 0.04,-0.75 0.33,-1.44 0.88,-2.07z"/>
    <path id="3" class="fil2" d="M24.53 16.29c-0.44,0.51 -0.69,1.06 -0.74,1.66 -0.04,0.59 0.12,1.04 0.5,1.37 0.38,0.33 0.85,0.44 1.43,0.32 0.59,-0.12 1.1,-0.44 1.55,-0.94 0.45,-0.51 0.7,-1.06 0.74,-1.66 0.04,-0.59 -0.12,-1.05 -0.5,-1.38 -0.37,-0.33 -0.85,-0.44 -1.43,-0.32 -0.59,0.12 -1.11,0.43 -1.56,0.94zm-0.45 -0.39c0.55,-0.62 1.2,-1 1.94,-1.13 0.75,-0.14 1.38,0.02 1.88,0.46 0.5,0.45 0.74,1.05 0.69,1.81 -0.04,0.75 -0.33,1.44 -0.88,2.06 -0.55,0.63 -1.19,1.01 -1.93,1.14 -0.75,0.14 -1.38,-0.02 -1.88,-0.46 -0.5,-0.44 -0.73,-1.05 -0.69,-1.81 0.04,-0.75 0.33,-1.44 0.88,-2.07z"/>
    <polygon id="4" class="fil2" points="30.72,17.81 26.84,22.22 26.37,21.82 29.86,17.86 29.56,17.6 29.97,17.14 30.72,17.8 30.72,17.81 "/>
   </g>
  </g>
  <path class="fil3" d="M9.84 6.15l12.31 13.08c1.16,1.24 3.54,3.26 4.14,4.49 0.63,-0.36 2.58,-2.29 3.21,-2.94 1.22,-1.27 2.57,-1.87 2.63,-3.74l-16.49 -11.43c-1.86,-1.27 -2.72,-2.82 -5.81,0.54z"/>
  <path class="fil1" d="M14.91 4.24c0.27,0.36 7.54,5.48 8.25,5.84 1.17,0.59 7.73,1.76 9.92,2.3 0.94,0.23 0.89,0.06 1.2,0.72 -1.23,0.5 -7.1,-1.6 -9.04,-1.6l7 4.84c0.9,0.35 2.53,0.71 3.55,0.61 0.5,-0.95 1.46,-6.2 1.73,-7.81 0.38,-2.28 -1.48,-1.8 -6.75,-2.84l-12.16 -2.22c-1.56,-0.28 -2.88,-0.97 -3.69,0.17z"/>
  <g style="clip-path:url(#id2)">
   <g id="_2067713176544">
    <path id="1" class="fil4" d="M20.81 6.8c-0.12,0.57 -0.07,1.08 0.14,1.55 0.21,0.45 0.53,0.73 0.94,0.82 0.42,0.09 0.82,-0.03 1.2,-0.36 0.39,-0.34 0.64,-0.79 0.76,-1.35 0.12,-0.56 0.08,-1.08 -0.14,-1.54 -0.21,-0.46 -0.53,-0.73 -0.95,-0.82 -0.42,-0.09 -0.81,0.03 -1.2,0.36 -0.39,0.34 -0.64,0.79 -0.77,1.35zm-0.5 -0.11c0.15,-0.7 0.48,-1.25 0.98,-1.65 0.5,-0.41 1.04,-0.56 1.6,-0.44 0.56,0.12 0.99,0.47 1.27,1.06 0.29,0.58 0.35,1.21 0.2,1.91 -0.15,0.7 -0.47,1.25 -0.97,1.66 -0.5,0.42 -1.03,0.56 -1.6,0.44 -0.56,-0.12 -0.98,-0.47 -1.27,-1.06 -0.29,-0.58 -0.35,-1.21 -0.21,-1.91z"/>
    <polygon id="2" class="fil4" points="26.07,5.36 25.01,10.27 24.5,10.16 25.44,5.76 25.12,5.69 25.23,5.17 26.06,5.35 26.06,5.36 "/>
    <path id="3" class="fil4" d="M26.37 7.99c-0.12,0.57 -0.07,1.08 0.14,1.55 0.21,0.45 0.53,0.73 0.94,0.82 0.42,0.09 0.82,-0.03 1.2,-0.36 0.39,-0.34 0.64,-0.79 0.76,-1.35 0.12,-0.56 0.08,-1.08 -0.14,-1.54 -0.21,-0.46 -0.53,-0.73 -0.95,-0.82 -0.42,-0.09 -0.81,0.03 -1.2,0.36 -0.39,0.34 -0.64,0.79 -0.77,1.35zm-0.5 -0.11c0.15,-0.7 0.48,-1.25 0.98,-1.65 0.5,-0.41 1.04,-0.56 1.6,-0.44 0.56,0.12 0.99,0.47 1.27,1.06 0.29,0.58 0.35,1.21 0.2,1.91 -0.15,0.7 -0.47,1.25 -0.97,1.66 -0.5,0.42 -1.03,0.56 -1.6,0.44 -0.56,-0.12 -0.98,-0.47 -1.27,-1.06 -0.29,-0.58 -0.35,-1.21 -0.21,-1.91z"/>
    <path id="4" class="fil4" d="M30.76 8.92c-0.12,0.57 -0.07,1.08 0.14,1.55 0.21,0.45 0.53,0.73 0.94,0.82 0.42,0.09 0.82,-0.03 1.2,-0.36 0.39,-0.34 0.64,-0.79 0.76,-1.35 0.12,-0.56 0.08,-1.08 -0.14,-1.54 -0.21,-0.46 -0.53,-0.73 -0.95,-0.82 -0.42,-0.09 -0.81,0.03 -1.2,0.36 -0.39,0.34 -0.64,0.79 -0.77,1.35zm-0.5 -0.11c0.15,-0.7 0.48,-1.25 0.98,-1.65 0.5,-0.41 1.04,-0.56 1.6,-0.44 0.56,0.12 0.99,0.47 1.27,1.06 0.29,0.58 0.35,1.21 0.2,1.91 -0.15,0.7 -0.47,1.25 -0.97,1.66 -0.5,0.42 -1.03,0.56 -1.6,0.44 -0.56,-0.12 -0.98,-0.47 -1.27,-1.06 -0.29,-0.58 -0.35,-1.21 -0.21,-1.91z"/>
    <polygon id="5" class="fil4" points="36.02,7.48 34.96,12.4 34.44,12.29 35.39,7.88 35.06,7.81 35.18,7.29 36.01,7.47 36.01,7.48 "/>
    <polygon id="6" class="fil4" points="37.19,7.73 36.13,12.65 35.62,12.54 36.57,8.13 36.24,8.06 36.35,7.55 37.19,7.73 37.18,7.73 "/>
   </g>
  </g>
  <path class="fil3" d="M14.91 4.24c0.27,0.36 7.54,5.48 8.25,5.84 1.17,0.59 7.73,1.76 9.92,2.3 0.94,0.23 0.89,0.06 1.2,0.72 -1.23,0.5 -7.1,-1.6 -9.04,-1.6l7 4.84c0.9,0.35 2.53,0.71 3.55,0.61 0.5,-0.95 1.46,-6.2 1.73,-7.81 0.38,-2.28 -1.48,-1.8 -6.75,-2.84l-12.16 -2.22c-1.56,-0.28 -2.88,-0.97 -3.69,0.17z"/>
  <path class="fil1" d="M17.65 3.04l0.35 0.19c0.26,0.11 0.27,0.12 0.56,0.2l17.29 3.12c-0.21,-1.16 -1.28,-3.61 -1.78,-5 -0.76,-2.11 -0.99,-1.6 -4.86,-1.18 -2.09,0.23 -4.15,0.5 -6.28,0.7 -1.11,0.11 -2.13,0.2 -3.22,0.32 -1.58,0.18 -1.79,0.16 -2.07,1.64z"/>
  <g style="clip-path:url(#id3)">
   <g id="_2067713178400">
    <path id="1" class="fil4" d="M19.85 1.94c-0.07,0.51 0,0.97 0.22,1.37 0.22,0.39 0.52,0.62 0.89,0.67 0.38,0.06 0.73,-0.07 1.05,-0.39 0.33,-0.32 0.53,-0.74 0.6,-1.25 0.08,-0.51 0,-0.97 -0.22,-1.37 -0.22,-0.39 -0.52,-0.62 -0.9,-0.67 -0.38,-0.06 -0.73,0.07 -1.05,0.39 -0.33,0.32 -0.53,0.74 -0.61,1.25zm-0.45 -0.07c0.1,-0.63 0.35,-1.14 0.77,-1.54 0.43,-0.4 0.89,-0.56 1.4,-0.49 0.51,0.07 0.91,0.37 1.2,0.87 0.29,0.5 0.39,1.06 0.29,1.69 -0.09,0.63 -0.35,1.14 -0.77,1.54 -0.42,0.4 -0.89,0.56 -1.4,0.49 -0.51,-0.08 -0.91,-0.37 -1.2,-0.87 -0.29,-0.5 -0.39,-1.06 -0.3,-1.69z"/>
    <polygon id="2" class="fil4" points="24.46,0.33 23.8,4.79 23.34,4.72 23.92,0.73 23.63,0.68 23.69,0.22 24.45,0.33 24.45,0.33 "/>
    <polygon id="3" class="fil4" points="25.52,0.49 24.87,4.94 24.4,4.87 24.99,0.88 24.69,0.84 24.76,0.37 25.52,0.48 25.51,0.48 "/>
    <path id="4" class="fil4" d="M25.95 2.82c-0.07,0.51 0,0.97 0.22,1.37 0.22,0.39 0.52,0.62 0.89,0.67 0.38,0.06 0.73,-0.07 1.05,-0.39 0.33,-0.32 0.53,-0.74 0.6,-1.25 0.08,-0.51 0,-0.97 -0.22,-1.37 -0.22,-0.39 -0.52,-0.62 -0.9,-0.67 -0.38,-0.06 -0.73,0.07 -1.05,0.39 -0.33,0.32 -0.53,0.74 -0.61,1.25zm-0.45 -0.07c0.1,-0.63 0.35,-1.14 0.77,-1.54 0.43,-0.4 0.89,-0.56 1.4,-0.49 0.51,0.07 0.91,0.37 1.2,0.87 0.29,0.5 0.39,1.06 0.29,1.69 -0.09,0.63 -0.35,1.14 -0.77,1.54 -0.42,0.4 -0.89,0.56 -1.4,0.49 -0.51,-0.08 -0.91,-0.37 -1.2,-0.87 -0.29,-0.5 -0.39,-1.06 -0.3,-1.69z"/>
    <polygon id="5" class="fil4" points="30.56,1.21 29.9,5.66 29.44,5.59 30.02,1.6 29.73,1.56 29.8,1.09 30.55,1.2 30.55,1.21 "/>
    <path id="6" class="fil4" d="M30.98 3.54c-0.07,0.51 0,0.97 0.22,1.37 0.22,0.39 0.52,0.62 0.89,0.67 0.38,0.06 0.73,-0.07 1.05,-0.39 0.33,-0.32 0.53,-0.74 0.6,-1.25 0.08,-0.51 0,-0.97 -0.22,-1.37 -0.22,-0.39 -0.52,-0.62 -0.9,-0.67 -0.38,-0.06 -0.73,0.07 -1.05,0.39 -0.33,0.32 -0.53,0.74 -0.61,1.25zm-0.45 -0.07c0.1,-0.63 0.35,-1.14 0.77,-1.54 0.43,-0.4 0.89,-0.56 1.4,-0.49 0.51,0.07 0.91,0.37 1.2,0.87 0.29,0.5 0.39,1.06 0.29,1.69 -0.09,0.63 -0.35,1.14 -0.77,1.54 -0.42,0.4 -0.89,0.56 -1.4,0.49 -0.51,-0.08 -0.91,-0.37 -1.2,-0.87 -0.29,-0.5 -0.39,-1.06 -0.3,-1.69z"/>
    <polygon id="7" class="fil4" points="35.59,1.93 34.94,6.38 34.47,6.31 35.06,2.32 34.76,2.28 34.83,1.81 35.59,1.92 35.59,1.93 "/>
   </g>
  </g>
  <path class="fil3" d="M17.65 3.04l0.35 0.19c0.26,0.11 0.27,0.12 0.56,0.2l17.29 3.12c-0.21,-1.16 -1.28,-3.61 -1.78,-5 -0.76,-2.11 -0.99,-1.6 -4.86,-1.18 -2.09,0.23 -4.15,0.5 -6.28,0.7 -1.11,0.11 -2.13,0.2 -3.22,0.32 -1.58,0.18 -1.79,0.16 -2.07,1.64z"/>
  <path class="fil0" d="M19.84 28.61c0.91,6.66 -4.79,6.22 -4.65,1.5 0.03,-1.02 0.22,-0.97 -0.16,-1.56 -1.8,4.44 -0.31,8.13 2.71,8.03 2.33,-0.07 3.82,-3.12 3.19,-5.82 -0.22,-0.96 -0.37,-1.34 -0.95,-2 -0.03,-0.04 -0.09,-0.1 -0.14,-0.14z"/>
  <path class="fil0" d="M17.33 27.42c-2.57,1.2 -1.12,6.22 0.65,5.35 1.95,-0.95 1.29,-6.26 -0.65,-5.35z"/>
  <path class="fil5" d="M1.3 23.39c1.24,0.17 1.74,-0.88 2.14,-1.93 -0.99,0.39 -0.41,0.3 -1.26,0.98 -0.57,0.45 -0.62,0.13 -0.88,0.96z"/>
  <path class="fil5" d="M0.92 26.32c0.38,0.49 -0.58,-0.03 0.51,0.7 0.34,0.23 0.59,0.26 1.01,0.41 -0.29,-0.97 -0.25,-1.04 -1.51,-1.11z"/>
  <path class="fil5" d="M0.7 28.54c0.33,0.26 -0.87,0.65 0.68,0.21 0.72,-0.2 0.13,-0.02 0.35,-0.51l-1.03 0.29z"/>
  <polygon class="fil2" points="13.99,4.02 10.76,7.68 10.38,7.34 13.27,4.06 13.03,3.85 13.37,3.46 13.99,4.01 13.99,4.01 "/>
  <path id="1" class="fil2" d="M13 6.39c-0.37,0.42 -0.57,0.88 -0.61,1.38 -0.04,0.49 0.1,0.87 0.41,1.14 0.31,0.27 0.71,0.36 1.19,0.27 0.49,-0.1 0.92,-0.36 1.29,-0.78 0.37,-0.42 0.58,-0.88 0.62,-1.38 0.03,-0.49 -0.1,-0.87 -0.41,-1.14 -0.31,-0.27 -0.7,-0.36 -1.18,-0.27 -0.49,0.1 -0.92,0.36 -1.29,0.78zm-0.37 -0.33c0.46,-0.52 1,-0.83 1.61,-0.94 0.62,-0.11 1.14,0.01 1.56,0.38 0.42,0.37 0.61,0.87 0.58,1.5 -0.03,0.62 -0.28,1.19 -0.73,1.71 -0.46,0.52 -0.99,0.84 -1.6,0.94 -0.62,0.11 -1.14,-0.01 -1.56,-0.38 -0.42,-0.37 -0.61,-0.87 -0.58,-1.5 0.03,-0.62 0.27,-1.2 0.73,-1.72z"/>
  <path id="2" class="fil2" d="M16.28 9.25c-0.37,0.42 -0.57,0.88 -0.61,1.38 -0.04,0.49 0.1,0.87 0.41,1.14 0.31,0.27 0.71,0.36 1.19,0.27 0.49,-0.1 0.92,-0.36 1.29,-0.78 0.37,-0.42 0.58,-0.88 0.62,-1.38 0.03,-0.49 -0.1,-0.87 -0.41,-1.14 -0.31,-0.27 -0.7,-0.36 -1.18,-0.27 -0.49,0.1 -0.92,0.36 -1.29,0.78zm-0.37 -0.33c0.46,-0.52 1,-0.83 1.61,-0.94 0.62,-0.11 1.14,0.01 1.56,0.38 0.42,0.37 0.61,0.87 0.58,1.5 -0.03,0.62 -0.28,1.19 -0.73,1.71 -0.46,0.52 -0.99,0.84 -1.6,0.94 -0.62,0.11 -1.14,-0.01 -1.56,-0.38 -0.42,-0.37 -0.61,-0.87 -0.58,-1.5 0.03,-0.62 0.27,-1.2 0.73,-1.72z"/>
  <path class="fil6" d="M19.06 49.66c-0.33,0.07 -0.72,0.25 -1.1,0.51 -0.39,0.28 -0.8,0.65 -1.13,1.07 -0.37,0.47 -0.38,0.86 0.04,0.99 0.51,0.16 1.15,0.13 0.96,0.46 -0.24,0.42 -0.93,0.58 -1.26,0.64 -0.7,0.12 -1.06,-0.26 -1.06,-0.26 -0.42,0.32 -0.84,0.63 -1.26,0.94 0,0 0.28,0.51 1.81,0.25 0.74,-0.12 1.54,-0.39 2.26,-0.76 0.71,-0.37 1.28,-0.83 1.49,-1.36 0.12,-0.28 -0.04,-0.46 -0.29,-0.57 -0.24,-0.11 -0.58,-0.14 -0.89,-0.17 -0.57,-0.05 -0.96,-0.14 -0.8,-0.38 0.16,-0.24 0.45,-0.42 0.84,-0.51 0.57,-0.13 1.04,-0.01 1.04,-0.01 0.3,-0.31 0.59,-0.61 0.86,-0.91 0,0 -0.64,-0.13 -1.51,0.07zm3.92 1.03c1.03,-0.44 2.08,-0.95 3.11,-1.52 0.02,0.28 0.05,0.57 0.06,0.85 0.01,0.29 0.02,0.58 0.02,0.87 0.83,-0.44 1.63,-0.92 2.42,-1.43 -0.14,-0.71 -0.29,-1.41 -0.53,-2.07 -0.24,-0.66 -0.6,-1.25 -1.13,-1.72 -0.48,0.43 -0.99,0.86 -1.52,1.26 0.17,0.18 0.3,0.4 0.38,0.64 0.09,0.25 0.14,0.51 0.19,0.77 -0.96,0.56 -1.92,1.07 -2.88,1.5 0.03,-0.27 0.06,-0.54 0.06,-0.81 0,-0.25 -0.03,-0.49 -0.09,-0.7 -0.55,0.27 -1.07,0.49 -1.58,0.68 -0.07,0.61 -0.23,1.3 -0.45,2 -0.23,0.72 -0.49,1.45 -0.77,2.19 0.76,-0.23 1.55,-0.48 2.36,-0.77 0.07,-0.29 0.13,-0.59 0.19,-0.88 0.06,-0.29 0.11,-0.58 0.16,-0.87zm7.1 -9.22c-0.59,1.07 -1.35,2.2 -2.3,3.34 0.64,0.42 1.1,0.98 1.43,1.61 0.32,0.64 0.55,1.32 0.77,2 1.58,-1.47 2.82,-2.98 3.72,-4.48 -0.16,-0.21 -0.32,-0.41 -0.5,-0.62 -0.49,0.84 -1.07,1.71 -1.76,2.59 -0.15,-0.25 -0.29,-0.49 -0.46,-0.73 0.62,-0.8 1.15,-1.59 1.59,-2.36 -0.21,-0.19 -0.42,-0.38 -0.65,-0.56 -0.41,0.73 -0.91,1.46 -1.47,2.22 -0.2,-0.22 -0.41,-0.42 -0.64,-0.62 0.53,-0.74 0.99,-1.46 1.38,-2.16 -0.31,-0.12 -0.67,-0.21 -1.11,-0.24z"/>
  <path class="fil6" d="M14 59.31c-0.66,0.02 -0.98,-0.21 -1.05,-0.52 -0.07,-0.31 0.08,-0.71 0.33,-1.08 0.24,-0.36 0.63,-0.77 1.08,-1.11 0.45,-0.33 0.99,-0.59 1.57,-0.66 0.62,-0.07 0.89,0.21 0.89,0.21 0.38,-0.41 0.75,-0.82 1.13,-1.24 0,0 -0.35,-0.41 -1.45,-0.23 -0.66,0.11 -1.46,0.49 -2.24,1.04 -0.77,0.54 -1.54,1.26 -2.1,2.02 -0.56,0.77 -0.79,1.47 -0.64,1.97 0.15,0.52 0.72,0.87 1.54,0.86 1.42,-0.02 2.48,-0.65 2.48,-0.65 -0.05,-0.36 -0.09,-0.71 -0.11,-1.07 0,0 -0.72,0.43 -1.43,0.44zm3.02 -1.93c-0.4,0.86 -0.4,1.61 0.04,2.07 0.47,0.49 1.5,0.64 2.86,0.32 1.45,-0.35 2.8,-1.13 3.78,-2.04 0.98,-0.92 1.52,-1.91 1.54,-2.73 0.01,-0.83 -0.46,-1.3 -1.15,-1.55 -0.65,-0.24 -1.5,-0.27 -2.48,0.04 -0.93,0.29 -1.85,0.85 -2.66,1.54 -0.8,0.68 -1.52,1.49 -1.92,2.35zm1.72 -0.28c0.17,-0.45 0.49,-0.93 0.91,-1.34 0.42,-0.41 0.96,-0.76 1.6,-0.94 0.67,-0.19 1.12,-0.14 1.4,0.07 0.29,0.22 0.4,0.6 0.33,1.04 -0.07,0.44 -0.3,0.94 -0.75,1.4 -0.45,0.46 -1.11,0.9 -1.95,1.1 -0.82,0.2 -1.32,0.08 -1.54,-0.19 -0.21,-0.26 -0.18,-0.68 -0.01,-1.14zm7.33 -5.29c0.04,0.91 0.08,1.82 0.12,2.73 0.04,0.91 0.08,1.82 0.11,2.73 1.05,-0.58 2.12,-1.19 3.11,-1.92 1.42,-1.04 2.51,-2.31 3.1,-3.42 0.56,-1.05 0.66,-1.95 0.33,-2.45 -0.33,-0.49 -0.97,-0.51 -1.77,-0.28 -0.79,0.23 -1.77,0.67 -2.78,1.35 -0.73,0.48 -1.48,0.88 -2.22,1.28zm2.5 2.96c-0.09,-0.49 -0.18,-0.98 -0.28,-1.47 -0.09,-0.49 -0.19,-0.98 -0.28,-1.47 0.1,-0.06 0.19,-0.12 0.29,-0.19 0.69,-0.45 1.29,-0.71 1.76,-0.79 0.48,-0.08 0.84,0.02 0.98,0.37 0.15,0.35 0.04,0.88 -0.31,1.46 -0.36,0.6 -0.99,1.28 -1.82,1.85 -0.12,0.08 -0.24,0.16 -0.35,0.24zm5.95 -10.85c-0.61,1.01 -1.34,2.11 -2.25,3.25 0.41,0.52 0.82,1.05 1.22,1.57 0.4,0.52 0.81,1.05 1.22,1.57 1.19,-1.58 2.15,-3.08 2.89,-4.47 -0.2,-0.13 -0.41,-0.26 -0.61,-0.39 -0.41,0.78 -0.89,1.6 -1.43,2.45 -0.18,-0.18 -0.37,-0.35 -0.55,-0.52 0.49,-0.78 0.93,-1.52 1.32,-2.22 -0.21,-0.13 -0.41,-0.26 -0.62,-0.39 -0.37,0.66 -0.79,1.36 -1.25,2.09 -0.18,-0.17 -0.37,-0.35 -0.55,-0.52 0.45,-0.72 0.86,-1.4 1.24,-2.04 -0.21,-0.13 -0.41,-0.26 -0.62,-0.38z"/>
  <path class="fil6" d="M12.61 61c-0.34,-0.01 -0.66,-0.02 -0.97,-0.04 -1.57,1.42 -2.75,2.56 -3.65,3.56 -0.74,0.83 -1.22,1.48 -1.51,1.94 0.22,0.33 0.51,0.58 0.86,0.76 0.16,-0.28 0.33,-0.56 0.53,-0.86 0.67,0.13 1.37,0.27 2.14,0.35 0.06,0.41 0.17,0.81 0.27,1.22 0.54,0.07 1.1,0.1 1.69,0.13 -0.34,-1.03 -0.67,-2.07 -0.66,-3.17 0.01,-1.16 0.47,-2.42 1.29,-3.89zm-2.7 4.46c-0.43,-0.05 -0.84,-0.1 -1.24,-0.16 0.22,-0.28 0.46,-0.58 0.7,-0.86 0.26,-0.31 0.54,-0.62 0.84,-0.96 0,0 0.01,0 0.01,0 -0.11,0.35 -0.2,0.69 -0.24,1.03 -0.05,0.32 -0.06,0.64 -0.06,0.96zm8.68 -4.89c-1.31,0.23 -2.52,0.32 -3.65,0.39 -0.97,1.46 -1.64,2.71 -2.03,3.9 -0.35,1.1 -0.5,2.17 -0.64,3.2 0.57,0.03 1.15,0.03 1.76,0 0.05,-0.43 0.09,-0.85 0.14,-1.29 0.06,-0.43 0.13,-0.87 0.22,-1.32 0.83,-0.06 1.7,-0.14 2.61,-0.28 0.05,-0.46 0.13,-0.92 0.23,-1.4 -0.86,0.14 -1.68,0.23 -2.48,0.29 0.15,-0.47 0.34,-0.97 0.56,-1.48 0.8,-0.06 1.64,-0.17 2.52,-0.32 0.2,-0.53 0.43,-1.08 0.75,-1.69zm0.76 -0.13c-0.6,1.42 -0.97,2.67 -1.12,3.88 -0.14,1.15 -0.16,2.28 -0.19,3.41 0.72,-0.12 1.45,-0.26 2.19,-0.41 0.01,-0.45 -0,-0.9 -0.01,-1.34 -0.01,-0.45 -0.01,-0.89 -0.01,-1.35 0.47,0.34 0.97,0.69 1.48,0.99 0.53,0.31 1.08,0.6 1.62,0.9 1,-0.31 2,-0.7 3.01,-1.1 -0.64,-0.24 -1.3,-0.47 -1.93,-0.71 -0.63,-0.24 -1.23,-0.54 -1.82,-0.85 0.57,-0.31 1.04,-0.71 1.35,-1.17 0.31,-0.47 0.45,-0.99 0.44,-1.52 -0.01,-0.71 -0.28,-1.1 -0.71,-1.32 -0.39,-0.2 -0.93,-0.25 -1.65,-0.04 -0.9,0.27 -1.79,0.49 -2.65,0.64zm0.91 3.06c0.02,-0.31 0.06,-0.62 0.1,-0.94 0.04,-0.32 0.11,-0.65 0.17,-0.98 0.07,-0.02 0.15,-0.04 0.22,-0.06 0.71,-0.2 1.53,-0.42 1.48,0.5 -0.05,0.89 -0.96,1.21 -1.73,1.42 -0.08,0.02 -0.16,0.04 -0.24,0.06zm7.52 -6.18c-0.59,0.33 -1.18,0.65 -1.77,0.97 -0.07,1.26 0.01,2.43 0.21,3.56 0.19,1.12 0.42,2.23 0.57,3.37 0.78,-0.36 1.56,-0.77 2.34,-1.17 -0.21,-1.13 -0.49,-2.22 -0.78,-3.31 -0.29,-1.09 -0.5,-2.21 -0.57,-3.42zm6.89 1.13c-0.93,0.86 -1.75,1.22 -2.35,1.24 -0.61,0.01 -1.03,-0.31 -1.19,-0.72 -0.16,-0.41 -0.11,-1 0.17,-1.67 0.28,-0.68 0.8,-1.42 1.61,-2.16 0.81,-0.75 1.53,-0.98 1.53,-0.98 -0.03,-0.55 -0.06,-1.09 -0.1,-1.63 0,0 -0.87,0.26 -2.24,1.52 -0.91,0.83 -1.83,1.96 -2.45,3.1 -0.64,1.17 -0.99,2.37 -0.72,3.3 0.27,0.92 1.14,1.38 2.26,1.35 1.1,-0.04 2.45,-0.56 3.62,-1.69 1.75,-1.69 2.35,-3.22 2.35,-3.22 -0.37,-0.11 -0.77,-0.2 -1.17,-0.31 0,0 -0.39,1.01 -1.32,1.88zm2.21 -10.04c-0.28,0.43 -0.56,0.87 -0.86,1.32 0.38,1.11 0.78,2.27 1.02,3.54 0.25,1.33 0.24,2.72 0.12,4.21 0.56,-0.66 1.09,-1.33 1.56,-2.06 0.03,-0.58 0.01,-1.14 -0.03,-1.67 0.67,-1.01 1.28,-2.02 1.79,-3.05 0.26,0.1 0.49,0.19 0.66,0.32 0.29,-0.64 0.57,-1.26 0.84,-1.86 -0.49,-0.23 -1.22,-0.38 -2.08,-0.46 -0.95,-0.09 -1.99,-0.16 -3.02,-0.28zm2.64 2.08c-0.32,0.59 -0.68,1.16 -1.06,1.73 -0.08,-0.35 -0.17,-0.69 -0.27,-1.03 -0.1,-0.33 -0.22,-0.65 -0.34,-0.97 0,-0 0.01,-0.01 0.01,-0.02 0.3,0.05 0.59,0.11 0.87,0.15 0.28,0.05 0.54,0.09 0.8,0.13z"/>
 </g>
</svg>
