<?xml version="1.0" encoding="UTF-8"?>
<!DOCTYPE svg PUBLIC "-//W3C//DTD SVG 1.1//EN" "http://www.w3.org/Graphics/SVG/1.1/DTD/svg11.dtd">
<!-- Creator: CorelDRAW 2018 (64-Bit Evaluation Version) -->
<svg xmlns="http://www.w3.org/2000/svg" xml:space="preserve" width="3.75221in" height="4.21127in" version="1.1" style="shape-rendering:geometricPrecision; text-rendering:geometricPrecision; image-rendering:optimizeQuality; fill-rule:evenodd; clip-rule:evenodd"
viewBox="0 0 122.28 137.24"
 xmlns:xlink="http://www.w3.org/1999/xlink">
 <defs>
  <style type="text/css">
   <![CDATA[
    .fil3 {fill:none}
    .fil1 {fill:#210D15}
    .fil5 {fill:#EEEEF0}
    .fil0 {fill:deeppink}
    .fil4 {fill:#FEFEFE;fill-rule:nonzero}
    .fil2 {fill:#FEFEFE;fill-rule:nonzero}
    .fil6 {fill:#210D15;fill-rule:nonzero}
   ]]>
  </style>
   <clipPath id="id0">
    <path d="M66.45 51.79c2.29,-0.14 2.04,-0.27 3.54,-1.58 0.96,-0.84 1.81,-1.47 2.77,-2.18 3.4,-2.54 3.32,-2.66 0.73,-5.57 -5.9,-6.62 -13.78,-14.2 -19.64,-20.75l-9.82 -10.37c-2.66,-2.73 -3.45,-0.9 -5.7,1.03 -2.87,2.46 -0.73,3.88 1.07,6.08 7.86,9.57 20.15,24.27 27.04,33.35z"/>
   </clipPath>
   <clipPath id="id1">
    <path d="M44.79 10.58l21.17 22.5c2,2.13 6.09,5.6 7.11,7.72 1.08,-0.63 4.44,-3.93 5.52,-5.06 2.1,-2.19 4.41,-3.22 4.53,-6.43l-28.36 -19.65c-3.2,-2.18 -4.68,-4.84 -9.98,0.92z"/>
   </clipPath>
   <clipPath id="id2">
    <path d="M53.51 7.29c0.47,0.62 12.97,9.43 14.19,10.04 2.01,1.01 13.29,3.03 17.06,3.96 1.61,0.4 1.53,0.1 2.05,1.24 -2.11,0.85 -12.21,-2.75 -15.55,-2.76l12.04 8.32c1.55,0.6 4.36,1.21 6.1,1.05 0.85,-1.64 2.51,-10.67 2.97,-13.44 0.65,-3.93 -2.54,-3.09 -11.61,-4.88l-20.91 -3.82c-2.68,-0.48 -4.96,-1.66 -6.35,0.29z"/>
   </clipPath>
   <clipPath id="id3">
    <path d="M58.23 5.23l0.61 0.33c0.45,0.18 0.46,0.21 0.96,0.35l29.74 5.36c-0.37,-1.99 -2.2,-6.21 -3.05,-8.59 -1.3,-3.62 -1.7,-2.75 -8.35,-2.03 -3.59,0.39 -7.14,0.85 -10.79,1.2 -1.91,0.18 -3.66,0.35 -5.54,0.55 -2.72,0.3 -3.07,0.27 -3.56,2.82z"/>
   </clipPath>
 </defs>
 <g id="Layer_x0020_1">
  <metadata id="CorelCorpID_0Corel-Layer"/>
  <path class="fil0" d="M102.85 57.48c11.91,0.17 8.94,0.03 9.07,18.43 0.14,5.37 0.9,4.64 2.59,7.02 -1.77,1.83 -2.52,2.18 -2.86,6.38 -0.08,3.83 -0.15,7.66 -0.22,11.1 -0.19,9.57 -3.1,6.37 -9.57,6.83l-0.17 8.8c16.33,2.68 15.98,-4.62 16.28,-19.93 0.04,-1.91 -0.14,-5.75 0.39,-7.26 0.54,-2.27 2.01,-1.44 3.76,-1.74l0.15 -7.66c-3.7,-1.32 -4,1.35 -3.8,-8.99 0.08,-4.21 0.46,-10.71 -0.47,-14.2 -2.06,-8.91 -8.54,-7.68 -14.98,-7.98 -0.29,1.9 -0.38,6.88 -0.18,9.19z"/>
  <path class="fil0" d="M19.43 59.4c-11.91,0.17 -8.94,0.03 -9.07,18.43 -0.14,5.37 -0.9,4.64 -2.59,7.02 1.77,1.83 2.52,2.18 2.86,6.38 0.08,3.83 0.15,7.66 0.22,11.1 0.19,9.57 3.1,6.37 9.57,6.83l0.17 8.8c-16.33,2.68 -15.98,-4.62 -16.28,-19.93 -0.04,-1.91 0.14,-5.75 -0.39,-7.26 -0.54,-2.27 -2.01,-1.44 -3.76,-1.74l-0.15 -7.66c3.7,-1.32 4,1.35 3.8,-8.99 -0.08,-4.21 -0.46,-10.71 0.47,-14.2 2.06,-8.91 8.54,-7.68 14.98,-7.98 0.29,1.9 0.38,6.88 0.18,9.19z"/>
  <path class="fil0" d="M37.13 133.3c-0.44,0.74 -0.89,2.73 0,3.72 1.33,0.5 39.03,0 46.57,0 3.1,0 4.44,0.5 5.77,-0.25 0.89,-0.74 0.44,-2.73 0,-3.47 -7.98,-0.25 -7.1,0.25 -7.98,-1.74 -0.44,-0.5 -0.44,-0.99 -0.89,-1.74 -0.44,-0.99 -1.33,-2.48 -1.77,-3.47l-31.05 0 -2.22 4.22c4.88,0.25 10.2,0 15.08,0 1.77,0 5.77,-0.25 7.1,0.25 1.77,0.74 0.89,1.98 -1.33,2.23 -5.77,0.74 -25.28,-0.5 -29.27,0.25z"/>
  <path class="fil1" d="M31.29 43.53c-1.03,1.24 -1.26,0.91 -2.61,1.52 -0.08,1.62 0.25,1.96 0.79,2.95 -0.87,0.54 -1.66,0.82 -1.59,2.1 0.09,1.69 -0.2,0.26 0.52,1.1l1.25 0.97c-0.33,7.71 1.08,7.03 8.14,7 7.83,-0.03 6.87,0.12 10.34,4.89 2.2,3.02 4,5.89 5.87,9.39l4.92 10.26c5.41,-1.99 15.55,-4.71 17.21,-13.06 -3.46,-2.31 -8.48,-9.88 -10.72,-13.94 -0.97,3.12 -1.9,5.88 -5.19,7.22 -3.78,1.54 -7.16,-1.48 -8.36,-4.01 -1.96,-4.1 -2.1,-14.86 8.38,-14.06 -1.66,-1.72 -6.77,-8.75 -9.7,-11.79 -8.83,3.01 -8.03,4.48 -10.18,7.91 -0.45,0.72 0.04,0.2 -0.53,0.63l-2.03 -5.68c6.17,-0.36 5.35,-1.21 9.09,-2.81 1.6,-0.68 1.92,-0.57 2.77,-1.31l-4.77 -5.9c-1.76,-2.16 -3.17,-4.03 -5.03,-5.98 -5.48,5.59 -1.86,6.58 -4.57,7.82 -2.36,-2.97 3.5,-7.78 3.59,-8.84 0.27,-3.12 -3.43,1.14 -4.99,5.76 -1.72,5.06 1.69,7.46 -1.63,10.71 -3.64,3.56 -5.34,2.35 -1.74,6.16 0.5,0.53 0.37,0.24 0.75,0.98z"/>
  <path class="fil0" d="M66.45 51.79c2.29,-0.14 2.04,-0.27 3.54,-1.58 0.96,-0.84 1.81,-1.47 2.77,-2.18 3.4,-2.54 3.32,-2.66 0.73,-5.57 -5.9,-6.62 -13.78,-14.2 -19.64,-20.75l-9.82 -10.37c-2.66,-2.73 -3.45,-0.9 -5.7,1.03 -2.87,2.46 -0.73,3.88 1.07,6.08 7.86,9.57 20.15,24.27 27.04,33.35z"/>
  <g style="clip-path:url(#id0)">
   <g id="_2032653388352">
    <polygon id="1" class="fil2" points="44.17,10.94 37.43,16.88 36.81,16.18 42.84,10.85 42.45,10.4 43.16,9.78 44.17,10.92 44.16,10.93 "/>
    <path id="2" class="fil2" d="M41.82 15.03c-0.77,0.69 -1.25,1.48 -1.43,2.38 -0.18,0.88 -0.01,1.61 0.49,2.18 0.51,0.57 1.21,0.83 2.11,0.76 0.92,-0.07 1.76,-0.45 2.53,-1.13 0.78,-0.68 1.26,-1.47 1.44,-2.37 0.18,-0.88 0.01,-1.61 -0.5,-2.18 -0.5,-0.57 -1.2,-0.82 -2.1,-0.76 -0.92,0.07 -1.76,0.44 -2.54,1.12zm-0.6 -0.68c0.96,-0.84 2.01,-1.29 3.16,-1.35 1.17,-0.06 2.09,0.29 2.77,1.06 0.68,0.77 0.92,1.73 0.71,2.88 -0.2,1.13 -0.78,2.12 -1.74,2.96 -0.95,0.85 -2,1.3 -3.15,1.35 -1.16,0.07 -2.09,-0.29 -2.77,-1.06 -0.68,-0.77 -0.91,-1.73 -0.71,-2.87 0.2,-1.13 0.78,-2.12 1.73,-2.97z"/>
    <path id="3" class="fil2" d="M47.16 21.02c-0.77,0.69 -1.25,1.48 -1.43,2.38 -0.18,0.88 -0.01,1.61 0.49,2.18 0.51,0.57 1.21,0.83 2.11,0.76 0.92,-0.07 1.76,-0.45 2.53,-1.13 0.78,-0.68 1.26,-1.47 1.44,-2.37 0.18,-0.88 0.01,-1.61 -0.5,-2.18 -0.5,-0.57 -1.2,-0.82 -2.1,-0.76 -0.92,0.07 -1.76,0.44 -2.54,1.12zm-0.6 -0.68c0.96,-0.84 2.01,-1.29 3.16,-1.35 1.17,-0.06 2.09,0.29 2.77,1.06 0.68,0.77 0.92,1.73 0.71,2.88 -0.2,1.13 -0.78,2.12 -1.74,2.96 -0.95,0.85 -2,1.3 -3.15,1.35 -1.16,0.07 -2.09,-0.29 -2.77,-1.06 -0.68,-0.77 -0.91,-1.73 -0.71,-2.87 0.2,-1.13 0.78,-2.12 1.73,-2.97z"/>
    <path id="4" class="fil2" d="M52.49 27c-0.77,0.69 -1.25,1.48 -1.43,2.38 -0.18,0.88 -0.01,1.61 0.49,2.18 0.51,0.57 1.21,0.83 2.11,0.76 0.92,-0.07 1.76,-0.45 2.53,-1.13 0.78,-0.68 1.26,-1.47 1.44,-2.37 0.18,-0.88 0.01,-1.61 -0.5,-2.18 -0.5,-0.57 -1.2,-0.82 -2.1,-0.76 -0.92,0.07 -1.76,0.44 -2.54,1.12zm-0.6 -0.68c0.96,-0.84 2.01,-1.29 3.16,-1.35 1.17,-0.06 2.09,0.29 2.77,1.06 0.68,0.77 0.92,1.73 0.71,2.88 -0.2,1.13 -0.78,2.12 -1.74,2.96 -0.95,0.85 -2,1.3 -3.15,1.35 -1.16,0.07 -2.09,-0.29 -2.77,-1.06 -0.68,-0.77 -0.91,-1.73 -0.71,-2.87 0.2,-1.13 0.78,-2.12 1.73,-2.97z"/>
    <polygon id="5" class="fil2" points="61.61,30.49 54.87,36.44 54.25,35.73 60.29,30.41 59.89,29.96 60.6,29.33 61.61,30.47 61.6,30.48 "/>
    <polygon id="6" class="fil2" points="63.04,32.1 56.3,38.04 55.68,37.34 61.72,32.01 61.32,31.56 62.03,30.94 63.04,32.08 63.03,32.09 "/>
    <path id="7" class="fil2" d="M60.69 36.19c-0.77,0.69 -1.25,1.48 -1.43,2.38 -0.18,0.88 -0.01,1.61 0.49,2.18 0.51,0.57 1.21,0.83 2.11,0.76 0.92,-0.07 1.76,-0.45 2.53,-1.13 0.78,-0.68 1.26,-1.47 1.44,-2.37 0.18,-0.88 0.01,-1.61 -0.5,-2.18 -0.5,-0.57 -1.2,-0.82 -2.1,-0.76 -0.92,0.07 -1.76,0.44 -2.54,1.12zm-0.6 -0.68c0.96,-0.84 2.01,-1.29 3.16,-1.35 1.17,-0.06 2.09,0.29 2.77,1.06 0.68,0.77 0.92,1.73 0.71,2.88 -0.2,1.13 -0.78,2.12 -1.74,2.96 -0.95,0.85 -2,1.3 -3.15,1.35 -1.16,0.07 -2.09,-0.29 -2.77,-1.06 -0.68,-0.77 -0.91,-1.73 -0.71,-2.87 0.2,-1.13 0.78,-2.12 1.73,-2.97z"/>
    <path id="8" class="fil2" d="M66.03 42.18c-0.77,0.69 -1.25,1.48 -1.43,2.38 -0.18,0.88 -0.01,1.61 0.49,2.18 0.51,0.57 1.21,0.83 2.11,0.76 0.92,-0.07 1.76,-0.45 2.53,-1.13 0.78,-0.68 1.26,-1.47 1.44,-2.37 0.18,-0.88 0.01,-1.61 -0.5,-2.18 -0.5,-0.57 -1.2,-0.82 -2.1,-0.76 -0.92,0.07 -1.76,0.44 -2.54,1.12zm-0.6 -0.68c0.96,-0.84 2.01,-1.29 3.16,-1.35 1.17,-0.06 2.09,0.29 2.77,1.06 0.68,0.77 0.92,1.73 0.71,2.88 -0.2,1.13 -0.78,2.12 -1.74,2.96 -0.95,0.85 -2,1.3 -3.15,1.35 -1.16,0.07 -2.09,-0.29 -2.77,-1.06 -0.68,-0.77 -0.91,-1.73 -0.71,-2.87 0.2,-1.13 0.78,-2.12 1.73,-2.97z"/>
    <polygon id="9" class="fil2" points="75.14,45.67 68.4,51.62 67.78,50.91 73.82,45.58 73.42,45.13 74.13,44.51 75.14,45.65 75.13,45.66 "/>
   </g>
  </g>
  <path class="fil3" d="M66.45 51.79c2.29,-0.14 2.04,-0.27 3.54,-1.58 0.96,-0.84 1.81,-1.47 2.77,-2.18 3.4,-2.54 3.32,-2.66 0.73,-5.57 -5.9,-6.62 -13.78,-14.2 -19.64,-20.75l-9.82 -10.37c-2.66,-2.73 -3.45,-0.9 -5.7,1.03 -2.87,2.46 -0.73,3.88 1.07,6.08 7.86,9.57 20.15,24.27 27.04,33.35z"/>
  <path class="fil0" d="M44.79 10.58l21.17 22.5c2,2.13 6.09,5.6 7.11,7.72 1.08,-0.63 4.44,-3.93 5.52,-5.06 2.1,-2.19 4.41,-3.22 4.53,-6.43l-28.36 -19.65c-3.2,-2.18 -4.68,-4.84 -9.98,0.92z"/>
  <g style="clip-path:url(#id1)">
   <g id="_2032653391392">
    <polygon id="1" class="fil2" points="65.3,17.15 58.62,24.74 57.82,24.04 63.82,17.24 63.31,16.8 64.01,16 65.3,17.13 65.29,17.14 "/>
    <path id="2" class="fil2" d="M63.26 22.06c-0.76,0.88 -1.19,1.83 -1.26,2.86 -0.07,1.01 0.21,1.8 0.86,2.36 0.65,0.57 1.46,0.76 2.46,0.56 1.01,-0.21 1.9,-0.75 2.66,-1.62 0.77,-0.87 1.2,-1.82 1.28,-2.85 0.07,-1.01 -0.21,-1.8 -0.86,-2.37 -0.64,-0.57 -1.46,-0.75 -2.45,-0.55 -1.01,0.21 -1.9,0.74 -2.68,1.61zm-0.77 -0.68c0.95,-1.07 2.06,-1.72 3.34,-1.95 1.29,-0.23 2.37,0.03 3.24,0.79 0.87,0.77 1.27,1.8 1.19,3.11 -0.06,1.29 -0.57,2.47 -1.52,3.54 -0.94,1.08 -2.05,1.73 -3.32,1.96 -1.29,0.24 -2.37,-0.03 -3.24,-0.79 -0.86,-0.76 -1.26,-1.8 -1.19,-3.11 0.06,-1.29 0.57,-2.48 1.51,-3.55z"/>
    <path id="3" class="fil2" d="M70.04 28c-0.76,0.88 -1.19,1.83 -1.26,2.86 -0.07,1.01 0.21,1.8 0.85,2.36 0.65,0.57 1.46,0.75 2.46,0.56 1.01,-0.21 1.9,-0.75 2.66,-1.62 0.77,-0.87 1.2,-1.82 1.28,-2.85 0.07,-1.01 -0.21,-1.8 -0.86,-2.37 -0.64,-0.57 -1.46,-0.75 -2.45,-0.55 -1.01,0.21 -1.9,0.74 -2.68,1.61zm-0.77 -0.68c0.95,-1.07 2.06,-1.72 3.34,-1.95 1.29,-0.23 2.37,0.03 3.24,0.79 0.87,0.77 1.27,1.8 1.19,3.11 -0.06,1.29 -0.57,2.47 -1.52,3.54 -0.94,1.08 -2.05,1.73 -3.32,1.96 -1.29,0.24 -2.37,-0.03 -3.24,-0.79 -0.86,-0.76 -1.26,-1.8 -1.19,-3.11 0.06,-1.29 0.57,-2.48 1.51,-3.55z"/>
    <polygon id="4" class="fil2" points="80.7,30.63 74.01,38.21 73.22,37.51 79.21,30.71 78.7,30.27 79.41,29.47 80.7,30.6 80.69,30.62 "/>
   </g>
  </g>
  <path class="fil3" d="M44.79 10.58l21.17 22.5c2,2.13 6.09,5.6 7.11,7.72 1.08,-0.63 4.44,-3.93 5.52,-5.06 2.1,-2.19 4.41,-3.22 4.53,-6.43l-28.36 -19.65c-3.2,-2.18 -4.68,-4.84 -9.98,0.92z"/>
  <path class="fil0" d="M53.51 7.29c0.47,0.62 12.97,9.43 14.19,10.04 2.01,1.01 13.29,3.03 17.06,3.96 1.61,0.4 1.53,0.1 2.05,1.24 -2.11,0.85 -12.21,-2.75 -15.55,-2.76l12.04 8.32c1.55,0.6 4.36,1.21 6.1,1.05 0.85,-1.64 2.51,-10.67 2.97,-13.44 0.65,-3.93 -2.54,-3.09 -11.61,-4.88l-20.91 -3.82c-2.68,-0.48 -4.96,-1.66 -6.35,0.29z"/>
  <g style="clip-path:url(#id2)">
   <g id="_2032653398976">
    <path id="1" class="fil4" d="M63.66 11.69c-0.21,0.97 -0.12,1.86 0.25,2.66 0.37,0.78 0.91,1.25 1.62,1.4 0.72,0.16 1.41,-0.05 2.07,-0.61 0.67,-0.58 1.11,-1.35 1.31,-2.32 0.21,-0.97 0.13,-1.86 -0.24,-2.66 -0.37,-0.78 -0.91,-1.25 -1.63,-1.41 -0.72,-0.15 -1.4,0.05 -2.06,0.61 -0.67,0.58 -1.11,1.35 -1.32,2.32zm-0.86 -0.18c0.26,-1.2 0.82,-2.14 1.68,-2.84 0.86,-0.71 1.78,-0.97 2.74,-0.76 0.97,0.21 1.7,0.82 2.19,1.82 0.49,0.99 0.61,2.08 0.34,3.28 -0.25,1.2 -0.81,2.15 -1.66,2.85 -0.86,0.71 -1.78,0.97 -2.74,0.76 -0.96,-0.21 -1.69,-0.82 -2.19,-1.82 -0.49,-0.99 -0.61,-2.08 -0.36,-3.28z"/>
    <polygon id="2" class="fil4" points="72.7,9.21 70.88,17.66 69.99,17.47 71.62,9.9 71.06,9.78 71.25,8.89 72.69,9.2 72.68,9.21 "/>
    <path id="3" class="fil4" d="M73.22 13.73c-0.21,0.97 -0.12,1.86 0.25,2.66 0.37,0.78 0.91,1.25 1.62,1.4 0.72,0.16 1.41,-0.05 2.07,-0.61 0.67,-0.58 1.11,-1.35 1.31,-2.32 0.21,-0.97 0.13,-1.86 -0.24,-2.66 -0.37,-0.78 -0.91,-1.25 -1.63,-1.41 -0.72,-0.15 -1.4,0.05 -2.06,0.61 -0.67,0.58 -1.11,1.35 -1.32,2.32zm-0.86 -0.18c0.26,-1.2 0.82,-2.14 1.68,-2.84 0.86,-0.71 1.78,-0.97 2.74,-0.76 0.97,0.21 1.7,0.82 2.19,1.82 0.49,0.99 0.61,2.08 0.34,3.28 -0.25,1.2 -0.81,2.15 -1.66,2.85 -0.86,0.71 -1.78,0.97 -2.74,0.76 -0.96,-0.21 -1.69,-0.82 -2.19,-1.82 -0.49,-0.99 -0.61,-2.08 -0.36,-3.28z"/>
    <path id="4" class="fil4" d="M80.76 15.34c-0.21,0.97 -0.12,1.86 0.25,2.66 0.37,0.78 0.91,1.25 1.62,1.4 0.72,0.16 1.41,-0.05 2.07,-0.61 0.67,-0.58 1.11,-1.35 1.31,-2.32 0.21,-0.97 0.13,-1.86 -0.24,-2.66 -0.37,-0.78 -0.91,-1.25 -1.63,-1.41 -0.72,-0.15 -1.4,0.05 -2.06,0.61 -0.67,0.58 -1.11,1.35 -1.32,2.32zm-0.86 -0.18c0.26,-1.2 0.82,-2.14 1.68,-2.84 0.86,-0.71 1.78,-0.97 2.74,-0.76 0.97,0.21 1.7,0.82 2.19,1.82 0.49,0.99 0.61,2.08 0.34,3.28 -0.25,1.2 -0.81,2.15 -1.66,2.85 -0.86,0.71 -1.78,0.97 -2.74,0.76 -0.96,-0.21 -1.69,-0.82 -2.19,-1.82 -0.49,-0.99 -0.61,-2.08 -0.36,-3.28z"/>
    <polygon id="5" class="fil4" points="89.8,12.87 87.98,21.32 87.09,21.12 88.73,13.55 88.16,13.43 88.35,12.54 89.79,12.85 89.79,12.86 "/>
    <polygon id="6" class="fil4" points="91.82,13.3 90,21.75 89.12,21.56 90.75,13.98 90.18,13.86 90.37,12.97 91.81,13.28 91.81,13.3 "/>
   </g>
  </g>
  <path class="fil3" d="M53.51 7.29c0.47,0.62 12.97,9.43 14.19,10.04 2.01,1.01 13.29,3.03 17.06,3.96 1.61,0.4 1.53,0.1 2.05,1.24 -2.11,0.85 -12.21,-2.75 -15.55,-2.76l12.04 8.32c1.55,0.6 4.36,1.21 6.1,1.05 0.85,-1.64 2.51,-10.67 2.97,-13.44 0.65,-3.93 -2.54,-3.09 -11.61,-4.88l-20.91 -3.82c-2.68,-0.48 -4.96,-1.66 -6.35,0.29z"/>
  <path class="fil0" d="M58.23 5.23l0.61 0.33c0.45,0.18 0.46,0.21 0.96,0.35l29.74 5.36c-0.37,-1.99 -2.2,-6.21 -3.05,-8.59 -1.3,-3.62 -1.7,-2.75 -8.35,-2.03 -3.59,0.39 -7.14,0.85 -10.79,1.2 -1.91,0.18 -3.66,0.35 -5.54,0.55 -2.72,0.3 -3.07,0.27 -3.56,2.82z"/>
  <g style="clip-path:url(#id3)">
   <g id="_2032653401120">
    <path id="1" class="fil4" d="M62 3.34c-0.13,0.88 0,1.67 0.38,2.36 0.37,0.68 0.89,1.06 1.53,1.16 0.65,0.09 1.26,-0.13 1.81,-0.67 0.56,-0.56 0.91,-1.27 1.03,-2.15 0.13,-0.88 0.01,-1.67 -0.37,-2.36 -0.37,-0.68 -0.89,-1.07 -1.54,-1.16 -0.65,-0.09 -1.25,0.13 -1.8,0.67 -0.56,0.56 -0.91,1.27 -1.04,2.15zm-0.78 -0.11c0.16,-1.08 0.61,-1.97 1.33,-2.64 0.73,-0.69 1.53,-0.97 2.41,-0.84 0.88,0.13 1.57,0.63 2.06,1.5 0.5,0.86 0.67,1.83 0.5,2.91 -0.16,1.09 -0.6,1.97 -1.32,2.64 -0.73,0.69 -1.53,0.97 -2.41,0.84 -0.87,-0.13 -1.56,-0.63 -2.06,-1.5 -0.5,-0.85 -0.67,-1.83 -0.51,-2.91z"/>
    <polygon id="2" class="fil4" points="69.92,0.57 68.8,8.23 68,8.11 69,1.25 68.49,1.18 68.61,0.37 69.91,0.56 69.91,0.57 "/>
    <polygon id="3" class="fil4" points="71.75,0.84 70.63,8.49 69.83,8.38 70.83,1.51 70.32,1.44 70.44,0.63 71.74,0.82 71.74,0.83 "/>
    <path id="4" class="fil4" d="M72.49 4.84c-0.13,0.88 0,1.67 0.38,2.36 0.37,0.68 0.89,1.06 1.53,1.16 0.65,0.09 1.26,-0.13 1.81,-0.67 0.56,-0.56 0.91,-1.27 1.03,-2.15 0.13,-0.88 0.01,-1.67 -0.37,-2.36 -0.37,-0.68 -0.89,-1.07 -1.54,-1.16 -0.65,-0.09 -1.25,0.13 -1.8,0.67 -0.56,0.56 -0.91,1.27 -1.04,2.15zm-0.78 -0.11c0.16,-1.08 0.61,-1.97 1.33,-2.64 0.73,-0.69 1.53,-0.97 2.41,-0.84 0.88,0.13 1.57,0.63 2.06,1.5 0.5,0.86 0.67,1.83 0.5,2.91 -0.16,1.09 -0.6,1.97 -1.32,2.64 -0.73,0.69 -1.53,0.97 -2.41,0.84 -0.87,-0.13 -1.56,-0.63 -2.06,-1.5 -0.5,-0.85 -0.67,-1.83 -0.51,-2.91z"/>
    <polygon id="5" class="fil4" points="80.41,2.07 79.29,9.73 78.49,9.62 79.49,2.75 78.98,2.68 79.1,1.87 80.4,2.06 80.4,2.07 "/>
    <path id="6" class="fil4" d="M81.14 6.08c-0.13,0.88 0,1.67 0.38,2.36 0.37,0.68 0.89,1.06 1.53,1.16 0.65,0.09 1.26,-0.13 1.81,-0.67 0.56,-0.56 0.91,-1.27 1.03,-2.15 0.13,-0.88 0.01,-1.67 -0.37,-2.36 -0.37,-0.68 -0.89,-1.07 -1.54,-1.16 -0.65,-0.09 -1.25,0.13 -1.8,0.67 -0.56,0.56 -0.91,1.27 -1.04,2.15zm-0.78 -0.11c0.16,-1.08 0.61,-1.97 1.33,-2.64 0.73,-0.69 1.53,-0.97 2.41,-0.84 0.88,0.13 1.57,0.63 2.06,1.5 0.5,0.86 0.67,1.83 0.5,2.91 -0.16,1.09 -0.6,1.97 -1.32,2.64 -0.73,0.69 -1.53,0.97 -2.41,0.84 -0.87,-0.13 -1.56,-0.63 -2.06,-1.5 -0.5,-0.85 -0.67,-1.83 -0.51,-2.91z"/>
    <polygon id="7" class="fil4" points="89.07,3.31 87.95,10.97 87.14,10.86 88.15,3.99 87.64,3.92 87.76,3.11 89.06,3.3 89.06,3.31 "/>
   </g>
  </g>
  <path class="fil3" d="M58.23 5.23l0.61 0.33c0.45,0.18 0.46,0.21 0.96,0.35l29.74 5.36c-0.37,-1.99 -2.2,-6.21 -3.05,-8.59 -1.3,-3.62 -1.7,-2.75 -8.35,-2.03 -3.59,0.39 -7.14,0.85 -10.79,1.2 -1.91,0.18 -3.66,0.35 -5.54,0.55 -2.72,0.3 -3.07,0.27 -3.56,2.82z"/>
  <path class="fil1" d="M61.98 49.19c1.56,11.45 -8.24,10.69 -8,2.57 0.05,-1.76 0.38,-1.67 -0.27,-2.69 -3.09,7.64 -0.53,13.97 4.66,13.81 4.01,-0.13 6.57,-5.36 5.48,-10.01 -0.39,-1.66 -0.64,-2.3 -1.63,-3.44 -0.05,-0.06 -0.16,-0.17 -0.24,-0.25z"/>
  <path class="fil1" d="M57.67 47.15c-4.42,2.06 -1.92,10.69 1.12,9.21 3.34,-1.63 2.22,-10.76 -1.12,-9.21z"/>
  <path class="fil5" d="M30.1 40.22c2.13,0.29 3,-1.51 3.68,-3.33 -1.7,0.68 -0.7,0.52 -2.16,1.68 -0.99,0.78 -1.07,0.22 -1.52,1.65z"/>
  <path class="fil5" d="M29.45 45.25c0.65,0.84 -1,-0.04 0.87,1.21 0.58,0.39 1.02,0.45 1.73,0.7 -0.5,-1.66 -0.44,-1.78 -2.6,-1.91z"/>
  <path class="fil5" d="M29.08 49.07c0.56,0.45 -1.5,1.12 1.16,0.37 1.24,-0.35 0.22,-0.04 0.61,-0.87l-1.77 0.51z"/>
  <polygon class="fil2" points="51.93,6.91 46.38,13.2 45.72,12.62 50.69,6.98 50.27,6.61 50.86,5.95 51.93,6.89 51.92,6.9 "/>
  <path id="1" class="fil2" d="M50.23 10.98c-0.63,0.73 -0.98,1.52 -1.05,2.37 -0.06,0.84 0.18,1.49 0.71,1.96 0.54,0.47 1.21,0.63 2.04,0.46 0.84,-0.17 1.58,-0.62 2.21,-1.35 0.64,-0.72 0.99,-1.51 1.06,-2.36 0.06,-0.84 -0.18,-1.49 -0.71,-1.96 -0.53,-0.47 -1.21,-0.62 -2.04,-0.46 -0.84,0.17 -1.58,0.62 -2.22,1.34zm-0.64 -0.56c0.79,-0.89 1.71,-1.43 2.77,-1.62 1.07,-0.19 1.97,0.02 2.68,0.66 0.72,0.64 1.05,1.5 0.99,2.58 -0.05,1.07 -0.47,2.05 -1.26,2.94 -0.78,0.89 -1.7,1.44 -2.76,1.62 -1.07,0.2 -1.97,-0.02 -2.69,-0.66 -0.72,-0.63 -1.05,-1.49 -0.99,-2.58 0.05,-1.07 0.47,-2.06 1.26,-2.95z"/>
  <path id="2" class="fil2" d="M55.86 15.91c-0.63,0.73 -0.98,1.52 -1.05,2.37 -0.06,0.84 0.18,1.49 0.71,1.96 0.54,0.47 1.21,0.63 2.04,0.46 0.84,-0.17 1.58,-0.62 2.21,-1.35 0.64,-0.72 0.99,-1.51 1.06,-2.36 0.06,-0.84 -0.18,-1.49 -0.71,-1.96 -0.53,-0.47 -1.21,-0.62 -2.04,-0.46 -0.84,0.17 -1.58,0.62 -2.22,1.34zm-0.64 -0.56c0.79,-0.89 1.71,-1.43 2.77,-1.62 1.07,-0.19 1.97,0.02 2.68,0.66 0.72,0.64 1.05,1.5 0.99,2.58 -0.05,1.07 -0.47,2.05 -1.26,2.94 -0.78,0.89 -1.7,1.44 -2.76,1.62 -1.07,0.2 -1.97,-0.02 -2.69,-0.66 -0.72,-0.63 -1.05,-1.49 -0.99,-2.58 0.05,-1.07 0.47,-2.06 1.26,-2.95z"/>
  <path class="fil6" d="M60.64 85.39c-0.56,0.13 -1.23,0.42 -1.88,0.88 -0.68,0.48 -1.38,1.11 -1.95,1.84 -0.63,0.8 -0.66,1.47 0.07,1.7 0.88,0.28 1.97,0.22 1.65,0.78 -0.41,0.72 -1.6,0.99 -2.16,1.09 -1.21,0.21 -1.82,-0.46 -1.82,-0.46 -0.71,0.55 -1.44,1.09 -2.16,1.62 0,0 0.49,0.88 3.12,0.44 1.27,-0.21 2.65,-0.67 3.88,-1.3 1.22,-0.63 2.19,-1.43 2.57,-2.33 0.2,-0.49 -0.06,-0.79 -0.5,-0.99 -0.41,-0.19 -0.99,-0.25 -1.53,-0.29 -0.98,-0.08 -1.66,-0.24 -1.38,-0.66 0.27,-0.41 0.77,-0.73 1.44,-0.88 0.97,-0.22 1.8,-0.02 1.8,-0.02 0.52,-0.53 1.02,-1.05 1.47,-1.56 0,0 -1.1,-0.22 -2.6,0.13zm6.74 1.76c1.78,-0.75 3.57,-1.64 5.36,-2.62 0.04,0.49 0.08,0.97 0.1,1.47 0.02,0.5 0.03,0.99 0.03,1.5 1.42,-0.75 2.81,-1.59 4.16,-2.45 -0.25,-1.21 -0.5,-2.42 -0.91,-3.56 -0.4,-1.14 -1.03,-2.15 -1.94,-2.96 -0.83,0.75 -1.71,1.48 -2.62,2.16 0.29,0.32 0.51,0.69 0.66,1.1 0.15,0.42 0.24,0.87 0.33,1.33 -1.65,0.97 -3.31,1.84 -4.96,2.58 0.05,-0.47 0.1,-0.93 0.1,-1.39 0,-0.43 -0.05,-0.84 -0.16,-1.21 -0.94,0.46 -1.85,0.84 -2.72,1.17 -0.12,1.06 -0.39,2.23 -0.77,3.44 -0.39,1.25 -0.85,2.5 -1.32,3.77 1.31,-0.4 2.66,-0.83 4.06,-1.33 0.11,-0.51 0.23,-1.01 0.33,-1.51 0.1,-0.5 0.19,-1 0.27,-1.49zm12.22 -15.86c-1.01,1.85 -2.32,3.78 -3.96,5.74 1.1,0.73 1.9,1.68 2.45,2.77 0.56,1.09 0.95,2.27 1.33,3.44 2.72,-2.52 4.85,-5.13 6.39,-7.7 -0.27,-0.36 -0.56,-0.71 -0.86,-1.06 -0.84,1.45 -1.85,2.94 -3.03,4.45 -0.25,-0.42 -0.51,-0.84 -0.78,-1.26 1.06,-1.38 1.97,-2.73 2.74,-4.05 -0.35,-0.32 -0.72,-0.65 -1.11,-0.96 -0.71,1.25 -1.56,2.52 -2.53,3.82 -0.34,-0.37 -0.71,-0.72 -1.11,-1.06 0.92,-1.27 1.7,-2.51 2.37,-3.72 -0.54,-0.21 -1.16,-0.37 -1.91,-0.42z"/>
  <path class="fil6" d="M51.94 101.99c-1.13,0.03 -1.69,-0.35 -1.81,-0.89 -0.12,-0.53 0.14,-1.22 0.56,-1.86 0.41,-0.62 1.08,-1.33 1.86,-1.9 0.77,-0.56 1.7,-1.02 2.7,-1.13 1.07,-0.13 1.52,0.36 1.52,0.36 0.65,-0.7 1.3,-1.41 1.94,-2.12 0,0 -0.6,-0.7 -2.49,-0.39 -1.14,0.18 -2.51,0.85 -3.85,1.79 -1.32,0.93 -2.65,2.16 -3.61,3.48 -0.96,1.32 -1.35,2.52 -1.1,3.39 0.26,0.89 1.23,1.49 2.65,1.47 2.44,-0.03 4.27,-1.12 4.27,-1.12 -0.09,-0.61 -0.15,-1.23 -0.18,-1.84 0,0 -1.23,0.73 -2.46,0.76zm5.2 -3.31c-0.69,1.48 -0.69,2.76 0.08,3.56 0.81,0.84 2.57,1.11 4.92,0.55 2.49,-0.6 4.81,-1.93 6.49,-3.51 1.68,-1.58 2.62,-3.28 2.64,-4.69 0.02,-1.42 -0.8,-2.24 -1.98,-2.67 -1.13,-0.41 -2.58,-0.46 -4.26,0.07 -1.59,0.5 -3.18,1.45 -4.58,2.64 -1.38,1.16 -2.61,2.56 -3.3,4.05zm2.95 -0.48c0.29,-0.77 0.84,-1.6 1.57,-2.31 0.72,-0.7 1.64,-1.3 2.75,-1.62 1.15,-0.33 1.92,-0.24 2.4,0.12 0.5,0.37 0.68,1.03 0.57,1.79 -0.11,0.76 -0.52,1.62 -1.29,2.4 -0.78,0.8 -1.9,1.55 -3.35,1.9 -1.42,0.34 -2.26,0.13 -2.64,-0.33 -0.37,-0.45 -0.31,-1.18 -0.02,-1.95zm12.6 -9.1c0.06,1.57 0.14,3.12 0.2,4.69 0.06,1.56 0.13,3.12 0.19,4.69 1.81,-1 3.65,-2.05 5.36,-3.31 2.44,-1.79 4.32,-3.97 5.33,-5.88 0.96,-1.81 1.14,-3.36 0.57,-4.22 -0.57,-0.85 -1.67,-0.88 -3.04,-0.49 -1.35,0.39 -3.04,1.16 -4.79,2.32 -1.25,0.83 -2.54,1.52 -3.82,2.2zm4.31 5.1c-0.16,-0.84 -0.32,-1.68 -0.48,-2.52 -0.16,-0.84 -0.32,-1.68 -0.48,-2.52 0.17,-0.11 0.33,-0.21 0.5,-0.32 1.18,-0.78 2.23,-1.22 3.03,-1.36 0.82,-0.14 1.44,0.04 1.69,0.63 0.25,0.6 0.07,1.51 -0.54,2.51 -0.62,1.03 -1.71,2.19 -3.12,3.18 -0.2,0.14 -0.41,0.27 -0.6,0.41zm10.22 -18.66c-1.05,1.73 -2.3,3.63 -3.87,5.58 0.7,0.9 1.4,1.8 2.1,2.7 0.69,0.9 1.4,1.8 2.09,2.7 2.04,-2.72 3.69,-5.29 4.97,-7.68 -0.35,-0.22 -0.71,-0.44 -1.06,-0.66 -0.71,1.34 -1.53,2.74 -2.47,4.22 -0.32,-0.3 -0.63,-0.6 -0.95,-0.9 0.85,-1.34 1.6,-2.61 2.27,-3.83 -0.35,-0.22 -0.71,-0.45 -1.06,-0.67 -0.64,1.14 -1.36,2.34 -2.15,3.6 -0.32,-0.3 -0.63,-0.59 -0.94,-0.89 0.78,-1.24 1.49,-2.41 2.13,-3.51 -0.35,-0.22 -0.71,-0.44 -1.06,-0.66z"/>
  <path class="fil6" d="M49.56 104.9c-0.58,-0.02 -1.13,-0.04 -1.67,-0.06 -2.69,2.44 -4.73,4.4 -6.27,6.12 -1.27,1.42 -2.09,2.54 -2.59,3.34 0.37,0.57 0.87,1 1.48,1.31 0.27,-0.48 0.56,-0.96 0.91,-1.48 1.15,0.22 2.36,0.46 3.69,0.6 0.11,0.71 0.29,1.39 0.46,2.09 0.92,0.12 1.9,0.17 2.91,0.22 -0.59,-1.78 -1.16,-3.56 -1.14,-5.45 0.02,-2 0.81,-4.17 2.22,-6.69zm-4.65 7.68c-0.74,-0.08 -1.45,-0.18 -2.14,-0.28 0.38,-0.48 0.79,-0.99 1.2,-1.48 0.45,-0.53 0.93,-1.07 1.44,-1.64 0.01,0 0.01,0 0.02,0 -0.18,0.6 -0.34,1.18 -0.42,1.76 -0.08,0.55 -0.1,1.1 -0.11,1.64zm14.93 -8.4c-2.25,0.39 -4.33,0.54 -6.28,0.67 -1.67,2.51 -2.83,4.66 -3.49,6.71 -0.61,1.88 -0.87,3.73 -1.1,5.51 0.98,0.05 1.98,0.05 3.03,0.01 0.08,-0.74 0.15,-1.47 0.24,-2.22 0.1,-0.74 0.22,-1.5 0.38,-2.28 1.43,-0.1 2.92,-0.24 4.48,-0.48 0.09,-0.79 0.23,-1.59 0.4,-2.41 -1.48,0.25 -2.89,0.39 -4.26,0.49 0.26,-0.82 0.59,-1.67 0.97,-2.55 1.38,-0.1 2.83,-0.29 4.33,-0.55 0.34,-0.91 0.74,-1.86 1.29,-2.9zm1.3 -0.23c-1.04,2.43 -1.66,4.6 -1.92,6.67 -0.25,1.97 -0.27,3.93 -0.33,5.86 1.24,-0.21 2.5,-0.45 3.77,-0.71 0.01,-0.78 -0.01,-1.54 -0.02,-2.31 -0.01,-0.77 -0.02,-1.53 -0.01,-2.32 0.81,0.59 1.66,1.18 2.55,1.69 0.9,0.53 1.85,1.03 2.78,1.55 1.72,-0.53 3.44,-1.21 5.18,-1.9 -1.1,-0.41 -2.23,-0.8 -3.33,-1.23 -1.09,-0.42 -2.12,-0.93 -3.12,-1.45 0.98,-0.53 1.78,-1.22 2.31,-2.02 0.53,-0.8 0.78,-1.7 0.76,-2.61 -0.02,-1.22 -0.49,-1.9 -1.21,-2.27 -0.66,-0.34 -1.6,-0.43 -2.83,-0.06 -1.55,0.46 -3.08,0.84 -4.55,1.1zm1.56 5.26c0.04,-0.53 0.1,-1.07 0.16,-1.61 0.07,-0.55 0.18,-1.12 0.3,-1.69 0.12,-0.03 0.25,-0.07 0.38,-0.1 1.21,-0.35 2.64,-0.72 2.54,0.87 -0.09,1.52 -1.65,2.08 -2.97,2.43 -0.14,0.04 -0.28,0.08 -0.41,0.11zm12.93 -10.63c-1.01,0.56 -2.03,1.12 -3.05,1.67 -0.13,2.17 0.02,4.18 0.36,6.12 0.33,1.92 0.73,3.83 0.99,5.8 1.35,-0.62 2.69,-1.32 4.02,-2.02 -0.35,-1.94 -0.85,-3.82 -1.34,-5.69 -0.5,-1.88 -0.86,-3.81 -0.98,-5.87zm11.84 1.95c-1.59,1.47 -3.01,2.1 -4.04,2.12 -1.06,0.02 -1.76,-0.54 -2.04,-1.24 -0.28,-0.71 -0.19,-1.72 0.29,-2.88 0.49,-1.18 1.38,-2.45 2.77,-3.72 1.4,-1.28 2.64,-1.69 2.64,-1.69 -0.05,-0.94 -0.1,-1.88 -0.18,-2.8 0,0 -1.5,0.45 -3.86,2.62 -1.56,1.44 -3.14,3.36 -4.22,5.33 -1.1,2.01 -1.7,4.07 -1.23,5.67 0.46,1.59 1.96,2.38 3.89,2.32 1.89,-0.06 4.21,-0.96 6.23,-2.9 3.01,-2.91 4.05,-5.53 4.05,-5.53 -0.63,-0.18 -1.32,-0.35 -2.01,-0.53 0,0 -0.67,1.74 -2.28,3.23zm3.8 -17.26c-0.48,0.75 -0.97,1.5 -1.48,2.27 0.66,1.91 1.34,3.9 1.75,6.08 0.42,2.29 0.42,4.67 0.21,7.23 0.96,-1.13 1.87,-2.28 2.68,-3.55 0.05,-1 0.02,-1.96 -0.05,-2.88 1.16,-1.74 2.21,-3.47 3.08,-5.24 0.45,0.16 0.84,0.33 1.14,0.54 0.49,-1.1 0.98,-2.16 1.44,-3.19 -0.85,-0.39 -2.09,-0.65 -3.58,-0.79 -1.64,-0.15 -3.42,-0.28 -5.19,-0.48zm4.54 3.57c-0.54,1.02 -1.17,1.99 -1.82,2.97 -0.14,-0.61 -0.29,-1.19 -0.47,-1.77 -0.18,-0.57 -0.37,-1.12 -0.59,-1.66 0,-0.01 0.01,-0.02 0.02,-0.03 0.51,0.09 1.01,0.18 1.5,0.26 0.48,0.08 0.93,0.16 1.37,0.23z"/>
 </g>
</svg>
