<svg width="1700" height="1603" viewBox="0 0 1700 1603" fill="none" xmlns="http://www.w3.org/2000/svg">
<path d="M720.787 9.96887C714.582 3.64051 706.053 0 697.293 0C688.566 0 680.004 3.64051 673.832 9.96887C667.66 16.2972 664.109 25.0753 664.109 34.0234C664.109 42.9716 667.66 51.7496 673.832 58.078C680.004 64.4064 688.566 68.0469 697.293 68.0469C706.053 68.0469 714.582 64.4064 720.787 58.078C726.959 51.7496 730.477 42.9716 730.477 34.0234C730.477 25.0753 726.959 16.2972 720.787 9.96887Z" fill="#B70569" fill-opacity="0.74"/>
<path d="M1171.25 565.899L1143.76 422.957C1132.55 364.655 1104.93 311.657 1063.88 269.696L1016.88 221.631V34.0233C1016.88 15.2322 1002.02 0 983.692 0C965.365 0 950.508 15.2322 950.508 34.0233V235.751C950.508 244.791 954.019 253.46 960.261 259.843L1017.02 317.876C1048.69 350.253 1070 391.139 1078.65 436.118L1106.14 579.06C1107.21 584.64 1106.08 590.298 1102.94 594.989C1099.8 599.681 1095.07 602.811 1089.6 603.798C1079.03 605.731 1068.72 598.827 1066.16 588.12L1051.95 528.715C1046.95 507.784 1028.17 494.457 1007.3 497.053C986.436 499.639 971.291 517.158 971.291 538.708V815.457C971.291 826.378 962.624 835.265 951.972 835.265C942.179 835.265 934.086 827.753 932.838 818.06V673.546C932.838 654.755 917.982 639.522 899.655 639.522C899.622 639.522 899.592 639.526 899.562 639.526C899.532 639.526 899.499 639.522 899.469 639.522C881.142 639.522 866.285 654.755 866.285 673.546V815.457C866.285 817.311 866.362 819.149 866.471 820.972V866.298C866.471 877.22 857.804 886.106 847.152 886.106C836.5 886.106 827.832 877.22 827.832 866.298V820.952C827.942 819.132 828.018 817.304 828.018 815.457V673.546C828.018 654.755 813.162 639.522 794.835 639.522C794.805 639.522 794.772 639.526 794.742 639.526C794.712 639.526 794.679 639.522 794.649 639.522C776.322 639.522 761.465 654.755 761.465 673.546V818.05C760.221 827.75 752.124 835.269 742.329 835.269C731.677 835.269 723.009 826.382 723.009 815.46V764.704C723.119 762.884 723.195 761.057 723.195 759.21V673.546C723.195 654.755 708.339 639.522 690.012 639.522C689.982 639.522 689.949 639.526 689.919 639.526C689.889 639.526 689.856 639.522 689.826 639.522C671.499 639.522 656.642 654.755 656.642 673.546V761.799C655.398 771.499 647.301 779.018 637.505 779.018C626.853 779.018 618.186 770.131 618.186 759.21V640.023V559.275V460.05C618.186 398.556 641.574 340.774 684.045 297.354L720.733 259.846C726.975 253.463 730.485 244.794 730.485 235.754V155.354C730.485 136.563 715.629 121.331 697.302 121.331C678.975 121.331 664.118 136.563 664.118 155.354V221.631L637.184 249.166C582.135 305.448 551.819 380.34 551.819 460.046V559.272V640.019V759.206C551.819 807.649 590.259 847.061 637.505 847.061C645.718 847.061 653.656 845.847 661.182 843.622C672.66 878.288 704.685 903.309 742.325 903.309C751.185 903.309 759.733 901.924 767.777 899.352C780.543 931.456 811.3 954.15 847.145 954.15C882.99 954.15 913.758 931.46 926.523 899.355C934.567 901.927 943.115 903.312 951.975 903.312C999.222 903.312 1037.66 863.899 1037.66 815.457V656.966C1055.72 669.405 1078.27 674.941 1101.13 670.814C1124.3 666.625 1144.39 653.356 1157.69 633.456C1170.99 613.556 1175.8 589.566 1171.25 565.899Z" fill="#B70569" fill-opacity="0.74"/>
<path d="M826.516 1254.43C822.451 1247.21 817.484 1240.74 811.796 1235.09C835.323 1207.56 840.437 1166.63 821.622 1133.21C817.202 1125.37 811.769 1118.48 805.591 1112.63C812.536 1103.48 817.699 1092.92 820.712 1081.39C826.636 1058.72 823.596 1035.04 812.151 1014.72C794.232 982.896 759.694 966.932 726.202 971.641C724.317 963.121 721.178 954.847 716.795 947.065C705.353 926.743 686.873 912.205 664.766 906.132C642.656 900.055 619.567 903.172 599.743 914.91L465.874 994.154C467.35 971.903 460.76 949.114 445.834 930.877C430.709 912.396 409.461 901.195 386.004 899.334C362.56 897.493 339.872 905.193 322.155 921.068L215.165 1016.95C171.525 1056.06 140.572 1107.08 125.649 1164.51L108.559 1230.28L16.5976 1284.72C0.725899 1294.11 -4.71289 1314.92 4.45242 1331.2C10.598 1342.11 21.751 1348.22 33.2193 1348.21C38.8472 1348.21 44.5548 1346.74 49.7812 1343.65L153.672 1282.15C161.308 1277.63 166.876 1270.18 169.146 1261.45L189.783 1182.02C201.294 1137.72 225.176 1098.36 258.844 1068.19L365.835 972.301C370.013 968.555 375.349 966.738 380.89 967.177C386.422 967.616 391.43 970.256 394.997 974.614C401.909 983.056 401.239 995.644 393.477 1003.27L350.405 1045.59C335.226 1060.5 333.368 1083.83 345.985 1101.07C358.604 1118.31 380.973 1123 399.175 1112.22L632.93 973.842C637.396 971.195 642.603 970.494 647.59 971.862C652.574 973.229 656.742 976.509 659.324 981.092C661.902 985.675 662.589 991.014 661.255 996.124C660.087 1000.6 657.426 1004.36 653.796 1007.02L532.291 1078.94C516.419 1088.34 510.98 1109.15 520.145 1125.42C520.162 1125.45 520.179 1125.47 520.195 1125.5C520.212 1125.53 520.222 1125.56 520.238 1125.58C529.4 1141.86 549.692 1147.43 565.567 1138.04L685.436 1067.08C686.996 1066.16 688.509 1065.17 689.999 1064.16L728.286 1041.5C737.511 1036.04 749.351 1039.29 754.68 1048.75C760.006 1058.21 756.834 1070.35 747.609 1075.81L709.305 1098.48C707.716 1099.3 706.133 1100.14 704.573 1101.07L584.704 1172.02C568.832 1181.42 563.394 1202.22 572.559 1218.5C573.803 1220.7 575.323 1222.77 577.009 1224.64C583.373 1231.75 592.273 1235.68 601.419 1235.68C607.047 1235.68 612.754 1234.21 617.981 1231.12L740.033 1158.86C748.847 1155.12 759.246 1158.55 764.148 1167.24C769.474 1176.7 766.301 1188.84 757.076 1194.31L714.223 1219.67C712.623 1220.49 711.034 1221.35 709.471 1222.27L637.114 1265.1C621.243 1274.49 615.804 1295.3 624.969 1311.58C630.876 1322.02 642.035 1328.76 653.829 1328.76C659.457 1328.76 665.164 1327.29 670.391 1324.19L744.944 1280.06C748.853 1278.4 753.157 1278.08 757.315 1279.22C762.299 1280.59 766.464 1283.87 769.046 1288.45C774.372 1297.91 771.199 1310.05 761.974 1315.51L655.624 1378.47L509.288 1465.09C457.345 1495.84 396.845 1503.96 338.936 1487.96L288.912 1474.14C280.394 1471.78 271.322 1473 263.686 1477.52L159.795 1539.03C143.923 1548.42 138.484 1569.23 147.65 1585.5C153.795 1596.42 164.948 1602.52 176.416 1602.52C182.044 1602.52 187.752 1601.05 192.978 1597.95L284.94 1543.52L321.664 1553.67C396.722 1574.4 475.142 1563.88 542.468 1524.02L626.273 1474.42C626.273 1474.42 626.276 1474.42 626.276 1474.41L688.804 1437.4L694.482 1434.04L795.154 1374.44C836.073 1350.22 850.14 1296.38 826.516 1254.43Z" fill="#B70569" fill-opacity="0.74"/>
<path d="M1682.4 1284.71L1590.44 1230.28L1580.65 1192.59C1560.64 1115.57 1512.54 1051.2 1445.21 1011.35L1298.88 924.722L1192.53 861.768C1172.7 850.033 1149.61 846.917 1127.51 852.99C1105.4 859.063 1086.92 873.602 1075.48 893.924C1071.38 901.205 1068.44 908.85 1066.56 916.628C1053.8 914.001 1040.52 914.382 1027.59 917.941C1005.48 924.014 986.999 938.552 975.557 958.874C971.177 966.656 968.037 974.93 966.153 983.446C932.66 978.741 898.123 994.708 880.204 1026.53C862.285 1058.35 866.068 1097 886.791 1124.38C880.539 1130.32 875.117 1137.24 870.736 1145.02C847.113 1186.98 861.183 1240.82 902.098 1265.04L1035.97 1344.29C1016.44 1354.1 1000.48 1371.35 992.537 1393.72C984.49 1416.39 985.651 1440.85 995.809 1462.62C1005.97 1484.38 1023.83 1500.65 1046.09 1508.44L1180.57 1555.5C1235.43 1574.7 1294 1576.67 1349.96 1561.21L1414.06 1543.5L1506.03 1597.94C1511.25 1601.03 1516.96 1602.5 1522.59 1602.5C1534.06 1602.5 1545.21 1596.4 1551.36 1585.48C1560.52 1569.21 1555.08 1548.4 1539.21 1539.01L1435.32 1477.51C1427.68 1472.99 1418.61 1471.76 1410.09 1474.12L1332.7 1495.51C1289.52 1507.44 1244.33 1505.91 1202.01 1491.1L1067.53 1444.04C1062.28 1442.2 1058.06 1438.37 1055.67 1433.24C1053.27 1428.11 1053 1422.33 1054.9 1416.99C1058.57 1406.63 1069.54 1400.94 1079.86 1404.01L1137.14 1421.1C1157.33 1427.13 1177.96 1417.11 1186.21 1397.29C1194.46 1377.46 1187.24 1355.26 1169.04 1344.48L935.282 1206.11C926.057 1200.65 922.885 1188.51 928.21 1179.05C930.792 1174.46 934.957 1171.19 939.941 1169.82C944.102 1168.67 948.403 1168.99 952.308 1170.66L1074.38 1242.92C1079.6 1246.01 1085.31 1247.48 1090.94 1247.48C1100.07 1247.48 1108.97 1243.55 1115.33 1236.46C1117.03 1234.59 1118.55 1232.51 1119.8 1230.3C1128.97 1214.02 1123.53 1193.21 1107.66 1183.82L987.792 1112.86C986.225 1111.94 984.633 1111.09 983.03 1110.27L944.752 1087.61C935.527 1082.15 932.355 1070.01 937.681 1060.55C940.263 1055.96 944.427 1052.69 949.415 1051.32C954.402 1049.95 959.606 1050.65 964.072 1053.3L1002.36 1075.96C1003.85 1076.97 1005.36 1077.96 1006.92 1078.88L1126.79 1149.84C1132.01 1152.93 1137.72 1154.4 1143.35 1154.4C1152.49 1154.4 1161.38 1150.47 1167.75 1143.37C1169.44 1141.51 1170.96 1139.43 1172.21 1137.22C1181.38 1120.95 1175.94 1100.14 1160.07 1090.74L1038.56 1018.81C1034.93 1016.15 1032.27 1012.39 1031.1 1007.92C1029.77 1002.81 1030.45 997.471 1033.03 992.888C1035.62 988.305 1039.78 985.025 1044.77 983.657C1049.75 982.289 1054.96 982.99 1059.43 985.637L1102.3 1011.02C1103.78 1012.02 1105.29 1013 1106.85 1013.93L1179.2 1056.76C1184.43 1059.85 1190.14 1061.33 1195.77 1061.32C1204.9 1061.32 1213.8 1057.39 1220.16 1050.3C1221.86 1048.42 1223.37 1046.35 1224.63 1044.14C1233.79 1027.87 1228.35 1007.06 1212.48 997.665L1137.94 953.536C1130.37 947.582 1128.07 936.633 1132.96 927.937C1135.54 923.354 1139.71 920.074 1144.69 918.706C1149.68 917.342 1154.88 918.04 1159.35 920.687L1260.02 980.282L1265.7 983.644L1328.23 1020.66C1328.23 1020.66 1328.23 1020.66 1328.23 1020.66L1412.04 1070.27C1463.98 1101.02 1501.09 1150.68 1516.53 1210.1L1529.87 1261.43C1532.14 1270.16 1537.7 1277.61 1545.34 1282.13L1649.23 1343.63C1654.46 1346.72 1660.16 1348.19 1665.79 1348.19C1677.26 1348.19 1688.41 1342.09 1694.56 1331.18C1703.71 1314.92 1698.28 1294.11 1682.4 1284.71Z" fill="#B70569" fill-opacity="0.74"/>
</svg>
